<svg id="Livello_1" data-name="Livello 1" xmlns="http://www.w3.org/2000/svg" viewBox="0 0 545.09 148.88"><defs><style>.cls-1,.cls-12{stroke:#fff;}.cls-1{stroke-width:0.78px;}.cls-2{font-size:16.05px;}.cls-10,.cls-11,.cls-2,.cls-3,.cls-4,.cls-5,.cls-6,.cls-7,.cls-8,.cls-9{font-family:Trajan-Bold, Trajan;font-weight:700;}.cls-3{font-size:16.05px;}.cls-4{font-size:16.05px;}.cls-5{font-size:16.05px;}.cls-6{font-size:16.05px;}.cls-7{font-size:16.05px;}.cls-8{font-size:16.05px;}.cls-9{font-size:16.05px;}.cls-10{font-size:16.05px;}.cls-11{font-size:16.05px;}.cls-12{stroke-width:0.08px;}.cls-13{stroke:#000;stroke-width:1.04px;}</style></defs><title>banner_dida</title><polyline points="142.97 148.88 139.53 148.88 139.53 0 142.97 0"/><path d="M165.54,113.16c0,3.62,0,6.59-.19,8.17-.15,1.09-.34,1.92-1.09,2.07a5.81,5.81,0,0,1-1.13.15c-.23,0-.3.11-.3.23s.19.3.6.3c1.13,0,3.5-.11,3.69-.11s2.56.11,4.63.11c.41,0,.6-.11.6-.3s-.08-.23-.3-.23a16.41,16.41,0,0,1-1.7-.15c-1.13-.15-1.36-1-1.47-2.07-.19-1.58-.19-4.56-.19-8.17V110c0-.26.08-.34.26-.34.64,0,4.75,0,5.69.11a2.28,2.28,0,0,1,2,1.36,6.37,6.37,0,0,1,.23,1.36c0,.19.08.34.26.34s.26-.38.26-.72.08-1.77.15-2.52c.11-1.24.3-1.88.3-2.11s0-.3-.19-.3-.26.19-.41.38c-.34.49-.83.6-1.73.68-.53,0-1.05,0-1.7,0l-4.82,0c-.23,0-.26-.11-.26-.34V97.53c0-.3.11-.41.34-.41l5.8.11a2.87,2.87,0,0,1,2.56,1.21,4.06,4.06,0,0,1,.34,1.43c0,.26.08.45.26.45s.26-.23.3-.41c.08-.45.15-2.11.19-2.49.11-1.05.3-1.51.3-1.77s-.08-.34-.23-.34-.3.15-.53.23a8.22,8.22,0,0,1-1.66.15c-.87,0-8.51,0-9.27,0-.19,0-2.56-.11-4.26-.11-.41,0-.6.08-.6.3s.15.23.3.23a7,7,0,0,1,1.28.11c1.24.26,1.54.87,1.62,2.15s.08,2.26.08,8.14v6.63M191,106.53c0-5.88,0-6.93.08-8.14s.38-2,1.39-2.15a5.59,5.59,0,0,1,.94-.11c.15,0,.3-.08.3-.23s-.19-.3-.6-.3c-1.13,0-3.5.11-3.69.11s-2.56-.11-3.8-.11c-.41,0-.6.08-.6.3s.15.23.3.23a5,5,0,0,1,1.17.15c.83.19,1.21.83,1.28,2.11s.08,2.26.08,8.14v6.63c0,3.62,0,6.59-.19,8.17-.15,1.09-.34,1.92-1.09,2.07a5.81,5.81,0,0,1-1.13.15c-.23,0-.3.11-.3.23s.19.3.6.3c1.13,0,3.5-.11,3.69-.11s2.56.11,4.63.11c.41,0,.6-.11.6-.3s-.08-.23-.3-.23a16.41,16.41,0,0,1-1.7-.15c-1.13-.15-1.36-1-1.47-2.07-.19-1.58-.19-4.56-.19-8.17v-6.63Zm13.41,6.63c0,3.62,0,6.59-.19,8.17-.15,1.09-.34,1.92-1.09,2.07a5.81,5.81,0,0,1-1.13.15c-.23,0-.3.11-.3.23s.19.3.6.3c1.13,0,3.5-.11,3.54-.11.19,0,2.56.11,4.63.11.41,0,.6-.11.6-.3s-.08-.23-.3-.23a16.41,16.41,0,0,1-1.7-.15c-1.13-.15-1.36-1-1.47-2.07-.19-1.58-.19-4.56-.19-8.17v-.9c0-.19.08-.3.26-.3l4.63.08a.61.61,0,0,1,.49.23c.75,1,2.52,3.5,4.11,5.58,2.15,2.83,3.47,4.67,5.09,5.54a7.66,7.66,0,0,0,4,.72h2.67c.68,0,.9-.08.9-.3s-.15-.23-.34-.23a9,9,0,0,1-1.47-.11,7.79,7.79,0,0,1-4.6-2.71c-2.18-2.34-4.75-5.69-7.84-9.64,3.39-3.13,4.56-5.91,4.56-8.7a6.59,6.59,0,0,0-2.6-5.12c-2-1.43-4.52-1.66-6.89-1.66-1.17,0-4,.11-4.45.11-.19,0-2.56-.11-4.26-.11-.41,0-.6.08-.6.3s.15.23.3.23a7,7,0,0,1,1.28.11c1.24.26,1.54.87,1.62,2.15s.08,2.26.08,8.14v6.63Zm3-15.67a.45.45,0,0,1,.3-.45,11.38,11.38,0,0,1,2.52-.23c4,0,6.52,2.83,6.52,7.53,0,2.86-1,4.9-2.3,5.8a4.88,4.88,0,0,1-2.83.72,10.38,10.38,0,0,1-4-.6.49.49,0,0,1-.26-.45V97.49Zm25.39,15.67c0,3.62,0,6.59-.19,8.17-.15,1.09-.34,1.92-1.09,2.07a5.81,5.81,0,0,1-1.13.15c-.23,0-.3.11-.3.23s.19.3.6.3c1.13,0,3.5-.11,3.69-.11,1.09,0,3.62.23,9.3.23,1.47,0,1.77,0,2-1,.19-.79.49-3.35.49-3.65s0-.57-.23-.57-.26.15-.34.57c-.26,1.54-.72,2.3-1.7,2.71a10.81,10.81,0,0,1-3.62.41c-3.69,0-4.26-.49-4.37-3.09,0-.79,0-5.16,0-6.44v-3.32a.24.24,0,0,1,.26-.26c.64,0,4.37.08,5.39.19,1.47.15,1.81.79,2,1.32a3.85,3.85,0,0,1,.15,1.24c0,.19.08.34.26.34s.26-.41.26-.72.08-1.66.15-2.41c.11-1.24.3-1.88.3-2.11s-.08-.3-.19-.3-.3.19-.56.49-.87.45-1.77.53-5.5.08-6,.08c-.19,0-.23-.11-.23-.38V97.45c0-.26.08-.38.23-.38.41,0,4.52,0,5.16.11,2,.23,2.41.68,2.67,1.28a4,4,0,0,1,.23,1.36c0,.3.08.49.3.49s.23-.23.26-.41c.08-.45.15-2.11.19-2.49.11-1.05.3-1.51.3-1.77s0-.34-.15-.34-.34.15-.53.19a10,10,0,0,1-1.62.19c-.87,0-8.36,0-8.63,0s-2.56-.11-4.26-.11c-.41,0-.6.08-.6.3s.15.23.3.23a7,7,0,0,1,1.28.11c1.24.26,1.54.87,1.62,2.15s.08,2.26.08,8.14v6.63Zm23.51-12.24c1.21,1.36,5.46,6.1,9.83,10.81,4,4.29,9.42,9.83,9.83,10.21,2,2,2.45,2.41,2.75,2.41s.34-.19.34-2.67l.08-22.08c0-2.26.15-3.09,1.39-3.35a3.32,3.32,0,0,1,.9-.11c.26,0,.41-.11.41-.26s-.26-.26-.68-.26c-1.54,0-2.79.11-3.2.11s-2.22-.11-3.92-.11c-.45,0-.75,0-.75.26s0,.26.3.26a10,10,0,0,1,1.85.19c1.17.3,1.43,1.13,1.47,3.58l.41,19.14c-1.21-1.24-5.31-5.84-9-9.83-5.8-6.22-11.41-12.28-12-12.92-.38-.38-1-1.21-1.32-1.21s-.41.41-.41,1.88l0,21.59c0,3.43-.19,4.52-1.13,4.78a5.41,5.41,0,0,1-1.54.23c-.19,0-.3.08-.3.23s.23.3.6.3c1.7,0,3.28-.11,3.62-.11s1.85.11,4,.11c.45,0,.68-.08.68-.3s-.11-.23-.3-.23a8.26,8.26,0,0,1-1.88-.23c-1-.3-1.39-1.28-1.47-4.37l-.49-18Zm35.37,21.55c5.73-8.66,11.41-17.33,16.88-26a.64.64,0,0,0,.15-.45c0-.23-.19-.3-.75-.3H297.46c-1.17,0-3,0-6.55-.11a10.4,10.4,0,0,1-1.58-.26c-.23,0-.3.19-.38.72-.19,1.13-.75,4.56-.75,5,0,.3,0,.49.23.49s.34-.11.41-.68a4.24,4.24,0,0,1,2.15-3c1.21-.64,3.5-.75,5.42-.75h8.17c-5.24,8.51-10.92,17-16.54,25.47-.45.68-.53.87-.53,1.05s.23.3.68.3c6.59,0,12.92.19,19.21.19.87,0,.9-.08,1.13-1a24.67,24.67,0,0,0,.75-4.33c0-.72-.08-.87-.3-.87s-.26.23-.34.6a6.07,6.07,0,0,1-.75,2c-.79,1.13-2,1.85-6,1.85Zm25.84-9.3c0,3.62,0,6.59-.19,8.17-.15,1.09-.34,1.92-1.09,2.07a5.81,5.81,0,0,1-1.13.15c-.23,0-.3.11-.3.23s.19.3.6.3c1.13,0,3.5-.11,3.69-.11,1.09,0,3.62.23,9.31.23,1.47,0,1.77,0,2-1,.19-.79.49-3.35.49-3.65s0-.57-.23-.57-.26.15-.34.57c-.26,1.54-.72,2.3-1.7,2.71a10.8,10.8,0,0,1-3.62.41c-3.69,0-4.26-.49-4.37-3.09,0-.79,0-5.16,0-6.44v-3.32a.24.24,0,0,1,.26-.26c.64,0,4.37.08,5.39.19,1.47.15,1.81.79,2,1.32a3.85,3.85,0,0,1,.15,1.24c0,.19.08.34.26.34s.26-.41.26-.72.08-1.66.15-2.41c.11-1.24.3-1.88.3-2.11s-.08-.3-.19-.3-.3.19-.57.49-.87.45-1.77.53-5.5.08-6,.08c-.19,0-.23-.11-.23-.38V97.45c0-.26.08-.38.23-.38.41,0,4.52,0,5.16.11,2,.23,2.41.68,2.67,1.28a4,4,0,0,1,.23,1.36c0,.3.08.49.3.49s.23-.23.26-.41c.08-.45.15-2.11.19-2.49.11-1.05.3-1.51.3-1.77s0-.34-.15-.34-.34.15-.53.19a10,10,0,0,1-1.62.19c-.87,0-8.36,0-8.63,0s-2.56-.11-4.26-.11c-.41,0-.6.08-.6.3s.15.23.3.23a7,7,0,0,1,1.28.11c1.24.26,1.54.87,1.62,2.15s.08,2.26.08,8.14v6.63Z" transform="translate(-4.1 -7)"/><path d="M164.52,77.12c0,2.31,0,4.21-.12,5.22-.1.7-.22,1.23-.7,1.32a3.72,3.72,0,0,1-.72.1c-.14,0-.19.07-.19.14s.12.19.38.19c.72,0,2.24-.07,2.36-.07s3.27.29,5.34.29a9.55,9.55,0,0,0,7.28-2.77,9.83,9.83,0,0,0,2.6-6.78,8.59,8.59,0,0,0-2.33-6.11c-2.86-3-7.26-2.74-9.64-2.74-1.44,0-3,.07-3.25.07-.12,0-1.63-.07-2.72-.07-.26,0-.38,0-.38.19s.1.14.19.14a4.5,4.5,0,0,1,.82.07c.79.17,1,.55,1,1.37s0,1.44,0,5.19v4.23Zm2-4.62c0-1.85,0-4.3,0-5.12a.44.44,0,0,1,.29-.48,6.43,6.43,0,0,1,1.56-.17c2.86,0,5.6.34,7.86,2.72a8.6,8.6,0,0,1,2.31,6.06,8.42,8.42,0,0,1-1.92,5.75,8.07,8.07,0,0,1-5.72,2.24c-2.84,0-3.77-.5-4.09-1a5.25,5.25,0,0,1-.26-1.83c0-.46,0-2.67,0-5.22v-3Zm19.79,4.62c0,2.31,0,4.21-.12,5.22-.1.7-.22,1.23-.7,1.32a3.72,3.72,0,0,1-.72.1c-.14,0-.19.07-.19.14s.12.19.38.19c.72,0,2.24-.07,2.36-.07.7,0,2.31.14,5.94.14.94,0,1.13,0,1.3-.62a23.51,23.51,0,0,0,.31-2.33c0-.17,0-.36-.14-.36s-.17.1-.22.36c-.17,1-.46,1.47-1.08,1.73a6.9,6.9,0,0,1-2.31.26c-2.36,0-2.72-.31-2.79-2,0-.51,0-3.29,0-4.11V75a.15.15,0,0,1,.17-.17c.41,0,2.79,0,3.44.12.94.1,1.15.5,1.25.84a2.46,2.46,0,0,1,.1.79c0,.12,0,.22.17.22s.17-.26.17-.46,0-1.06.1-1.54c.07-.79.19-1.2.19-1.35s0-.19-.12-.19-.19.12-.36.31-.55.29-1.13.34-3.51,0-3.82,0c-.12,0-.14-.07-.14-.24V67.09c0-.17,0-.24.14-.24.26,0,2.89,0,3.29.07,1.3.14,1.54.43,1.71.82a2.58,2.58,0,0,1,.14.87c0,.19,0,.31.19.31s.14-.14.17-.26c0-.29.1-1.35.12-1.59.07-.67.19-1,.19-1.13s0-.22-.1-.22-.22.1-.34.12a6.42,6.42,0,0,1-1,.12c-.55,0-5.34,0-5.51,0s-1.63-.07-2.72-.07c-.26,0-.38,0-.38.19s.1.14.19.14a4.51,4.51,0,0,1,.82.07c.79.17,1,.55,1,1.37s0,1.44,0,5.19v4.23ZM212.42,82a.87.87,0,0,1-.48.84,6.56,6.56,0,0,1-2.74.51,8.75,8.75,0,0,1-6.3-2.57,9.8,9.8,0,0,1-2.55-6.66c0-2.81,1-5,2.38-6.11a7.68,7.68,0,0,1,5.15-1.59c3.1,0,5,1,5.65,1.95A3.7,3.7,0,0,1,214,70c0,.22,0,.36.17.36s.22-.12.22-.51a30.42,30.42,0,0,1,.17-3.41c0-.1,0-.19-.29-.22a12,12,0,0,1-1.95-.24,20.61,20.61,0,0,0-3.68-.41,11.81,11.81,0,0,0-6.4,1.51,9.11,9.11,0,0,0-4,7.91,9.39,9.39,0,0,0,2.86,6.85,13.09,13.09,0,0,0,13,1.49c.29-.17.31-.22.31-1.3V79.35c0-1,0-1.73,0-2.5s.24-1.25.89-1.37a3.55,3.55,0,0,1,.6-.07c.1,0,.19,0,.19-.14s-.12-.19-.38-.19c-.72,0-2.24.07-2.36.07s-1.63-.07-2.72-.07c-.26,0-.38,0-.38.19s.1.14.19.14a4.47,4.47,0,0,1,.82.07c1,.26,1.08.53,1.08,2.48V82Zm11.32-9.16c0-3.75,0-4.42,0-5.19s.24-1.25.94-1.37a5.66,5.66,0,0,1,.79-.07c.1,0,.19,0,.19-.14s-.12-.19-.38-.19c-.72,0-2.48.07-2.6.07s-1.63-.07-2.72-.07c-.26,0-.38,0-.38.19s.1.14.19.14a4.5,4.5,0,0,1,.82.07c.79.17,1,.55,1,1.37s0,1.44,0,5.19v4.23c0,2.31,0,4.21-.12,5.22-.1.7-.22,1.23-.7,1.32a3.72,3.72,0,0,1-.72.1c-.14,0-.19.07-.19.14s.12.19.38.19c.72,0,2.14-.07,2.36-.07,1.39,0,3,.14,6.44.14,1.27,0,1.35-.1,1.51-.65a15.36,15.36,0,0,0,.36-2.4c0-.26,0-.36-.14-.36s-.19.12-.22.31a3.35,3.35,0,0,1-.62,1.44c-.58.7-1.63.72-2.91.72-1.88,0-2.5-.17-2.89-.55s-.53-2-.53-5.51V72.89Zm14.23,0c0-3.75,0-4.42,0-5.19s.24-1.25.89-1.37a3.58,3.58,0,0,1,.6-.07c.1,0,.19,0,.19-.14s-.12-.19-.38-.19c-.72,0-2.24.07-2.36.07s-1.64-.07-2.43-.07c-.26,0-.38,0-.38.19s.1.14.19.14a3.16,3.16,0,0,1,.75.1c.53.12.77.53.82,1.35s0,1.44,0,5.19v4.23c0,2.31,0,4.21-.12,5.22-.1.7-.22,1.23-.7,1.32a3.72,3.72,0,0,1-.72.1c-.14,0-.19.07-.19.14s.12.19.38.19c.72,0,2.24-.07,2.36-.07s1.64.07,3,.07c.26,0,.38-.07.38-.19s0-.14-.19-.14a10.51,10.51,0,0,1-1.08-.1c-.72-.1-.87-.63-.94-1.32-.12-1-.12-2.91-.12-5.22V72.89ZM256,84.43a6.32,6.32,0,0,0,3.63-1,5,5,0,0,0,2-4c0-1.92-.67-3.41-3.51-5.65l-.67-.53c-2.26-1.85-2.93-2.67-2.93-4a2.73,2.73,0,0,1,3-2.79c2.21,0,2.86,1,3,1.27a4.23,4.23,0,0,1,.31,1.2c0,.19,0,.31.19.31s.17-.17.17-.55c0-1.63.1-2.43.1-2.55s0-.17-.24-.17a3.93,3.93,0,0,1-.84-.12,9.34,9.34,0,0,0-2.24-.24c-3.05,0-5,1.76-5,4.33,0,1.63.58,3.13,3.13,5.22l1.08.89c2.07,1.71,2.77,2.67,2.77,4.33a3.21,3.21,0,0,1-3.44,3.2c-1.61,0-3.2-.67-3.56-2.45a4.24,4.24,0,0,1-.07-.89c0-.19,0-.26-.17-.26s-.17.12-.19.38-.12,1.35-.12,2.55c0,.65,0,.75.36.91a7.29,7.29,0,0,0,3.22.65Zm17.14-17.48,3,0c2.31,0,2.86.6,3,1.32l0,.26c0,.34.07.41.19.41s.17-.1.17-.31.07-1.92.07-2.64c0-.14,0-.29-.12-.29a11.65,11.65,0,0,1-2.38.24h-9c-.29,0-1.2,0-1.9-.12a4.5,4.5,0,0,1-1.06-.29c-.1,0-.19.31-.24.46s-.53,2.26-.53,2.5,0,.22.12.22.17,0,.24-.24a4.22,4.22,0,0,1,.41-.75c.38-.58,1-.75,2.45-.77l3.56,0V77.12c0,2.31,0,4.21-.12,5.22-.1.7-.22,1.23-.7,1.32a3.72,3.72,0,0,1-.72.1c-.14,0-.19.07-.19.14s.12.19.38.19c.72,0,2.24-.07,2.36-.07s1.64.07,3,.07c.26,0,.38-.07.38-.19s0-.14-.19-.14a10.51,10.51,0,0,1-1.08-.1c-.72-.1-.87-.63-.94-1.32-.12-1-.12-2.91-.12-5.22V66.95Zm10.1,9.45c0,3.51.91,5.19,2.09,6.32a7.39,7.39,0,0,0,5,1.71,7,7,0,0,0,5-1.78c1.92-1.71,2.21-4.59,2.21-7.19V72.89c0-3.75,0-4.42,0-5.19s.24-1.25.89-1.37a2.09,2.09,0,0,1,.6-.07c.1,0,.19,0,.19-.14s-.12-.19-.38-.19c-.72,0-1.85.07-2,.07s-1.47-.07-2.55-.07c-.26,0-.38,0-.38.19s.1.14.19.14a4.5,4.5,0,0,1,.82.07c.79.17,1,.55,1,1.37s0,1.44,0,5.19v3c0,2.48-.29,4.52-1.39,5.89a5.05,5.05,0,0,1-3.77,1.73,4.7,4.7,0,0,1-3.63-1.32c-1-1-1.8-2.48-1.8-5.94V72.89c0-3.75,0-4.42,0-5.19s.24-1.27.89-1.37a3.58,3.58,0,0,1,.6-.07c.1,0,.19,0,.19-.14s-.12-.19-.38-.19c-.72,0-2.16.07-2.38.07s-1.68-.07-2.77-.07c-.26,0-.38,0-.38.19s.1.14.19.14a4.5,4.5,0,0,1,.82.07c.79.17,1,.55,1,1.37s0,1.44,0,5.19V76.4Zm21.35.72c0,2.31,0,4.21-.12,5.22-.1.7-.22,1.23-.7,1.32a3.72,3.72,0,0,1-.72.1c-.14,0-.19.07-.19.14s.12.19.38.19c.72,0,2.24-.07,2.36-.07s3.27.29,5.34.29a9.55,9.55,0,0,0,7.28-2.77,9.83,9.83,0,0,0,2.6-6.78,8.59,8.59,0,0,0-2.33-6.11c-2.86-3-7.26-2.74-9.64-2.74-1.44,0-3,.07-3.25.07-.12,0-1.64-.07-2.72-.07-.26,0-.38,0-.38.19s.1.14.19.14a4.5,4.5,0,0,1,.82.07c.79.17,1,.55,1,1.37s0,1.44,0,5.19v4.23Zm2-4.62c0-1.85,0-4.3,0-5.12a.44.44,0,0,1,.29-.48,6.43,6.43,0,0,1,1.56-.17c2.86,0,5.6.34,7.86,2.72a8.6,8.6,0,0,1,2.31,6.06,8.42,8.42,0,0,1-1.92,5.75A8.07,8.07,0,0,1,311,83.49c-2.84,0-3.77-.5-4.09-1a5.26,5.26,0,0,1-.26-1.83c0-.46,0-2.67,0-5.22v-3Zm21.81.38c0-3.75,0-4.42,0-5.19s.24-1.25.89-1.37a3.58,3.58,0,0,1,.6-.07c.1,0,.19,0,.19-.14s-.12-.19-.38-.19c-.72,0-2.24.07-2.36.07s-1.64-.07-2.43-.07c-.26,0-.38,0-.38.19s.1.14.19.14a3.16,3.16,0,0,1,.75.1c.53.12.77.53.82,1.35s0,1.44,0,5.19v4.23c0,2.31,0,4.21-.12,5.22-.1.7-.22,1.23-.7,1.32a3.72,3.72,0,0,1-.72.1c-.14,0-.19.07-.19.14s.12.19.38.19c.72,0,2.24-.07,2.36-.07s1.63.07,3,.07c.26,0,.38-.07.38-.19s0-.14-.19-.14a10.51,10.51,0,0,1-1.08-.1c-.72-.1-.87-.63-.94-1.32-.12-1-.12-2.91-.12-5.22V72.89Z" transform="translate(-4.1 -7)"/><path d="M163.28,47.12c0,3.71,1,5.48,2.21,6.67a7.79,7.79,0,0,0,5.23,1.8,7.43,7.43,0,0,0,5.23-1.88c2-1.8,2.34-4.85,2.34-7.59V43.42c0-4,0-4.67.05-5.48s.25-1.32.94-1.45a2.21,2.21,0,0,1,.63-.08c.1,0,.2-.05.2-.15s-.13-.2-.41-.2c-.76,0-2,.08-2.13.08s-1.55-.08-2.69-.08c-.28,0-.41.05-.41.2s.1.15.2.15a4.75,4.75,0,0,1,.86.08c.84.18,1,.58,1.09,1.45s.05,1.52.05,5.48v3.17c0,2.61-.3,4.77-1.47,6.22a5.33,5.33,0,0,1-4,1.83,5,5,0,0,1-3.83-1.4c-1.09-1-1.9-2.61-1.9-6.27V43.42c0-4,0-4.67.05-5.48s.25-1.34.94-1.45a3.78,3.78,0,0,1,.63-.08c.1,0,.2-.05.2-.15s-.13-.2-.41-.2c-.76,0-2.28.08-2.51.08s-1.78-.08-2.92-.08c-.28,0-.41.05-.41.2s.1.15.2.15a4.75,4.75,0,0,1,.86.08c.84.18,1,.58,1.09,1.45s.05,1.52.05,5.48v3.71Zm22.89-7.49c.81.91,3.68,4.11,6.62,7.28,2.69,2.89,6.34,6.62,6.62,6.88,1.35,1.35,1.65,1.62,1.85,1.62s.23-.13.23-1.8l.05-14.87c0-1.52.1-2.08.94-2.26a2.24,2.24,0,0,1,.61-.08c.18,0,.28-.08.28-.18s-.18-.18-.46-.18c-1,0-1.88.08-2.16.08s-1.5-.08-2.64-.08c-.3,0-.51,0-.51.18s0,.18.2.18a6.75,6.75,0,0,1,1.24.13c.79.2,1,.76,1,2.41l.28,12.89c-.81-.84-3.58-3.93-6.09-6.62-3.91-4.19-7.69-8.27-8.07-8.7-.25-.25-.69-.81-.89-.81S185,36,185,37l0,14.54c0,2.31-.13,3-.76,3.22a3.65,3.65,0,0,1-1,.15c-.13,0-.2.05-.2.15s.15.2.41.2c1.14,0,2.21-.08,2.44-.08s1.24.08,2.69.08c.3,0,.46-.05.46-.2s-.08-.15-.2-.15a5.57,5.57,0,0,1-1.27-.15c-.69-.2-.94-.86-1-2.94l-.33-12.16ZM212,43.42c0-4,0-4.67.05-5.48s.25-1.32.94-1.45a3.78,3.78,0,0,1,.63-.08c.1,0,.2-.05.2-.15s-.13-.2-.41-.2c-.76,0-2.36.08-2.49.08s-1.73-.08-2.56-.08c-.28,0-.41.05-.41.2s.1.15.2.15a3.33,3.33,0,0,1,.79.1c.56.13.81.56.86,1.42s.05,1.52.05,5.48v4.47c0,2.44,0,4.44-.13,5.51-.1.74-.23,1.29-.74,1.4a3.92,3.92,0,0,1-.76.1c-.15,0-.2.08-.2.15s.13.2.41.2c.76,0,2.36-.08,2.49-.08s1.73.08,3.12.08c.28,0,.41-.08.41-.2s-.05-.15-.2-.15a11.08,11.08,0,0,1-1.14-.1c-.76-.1-.91-.66-1-1.4-.13-1.07-.13-3.07-.13-5.51V43.42Zm9.67-4.26A9.72,9.72,0,0,1,221,37a.51.51,0,0,1,.33-.51,3,3,0,0,1,1-.13c.18,0,.25-.05.25-.18s-.23-.18-.69-.18c-1,0-2.11.08-2.36.08s-1.75-.08-3-.08c-.41,0-.66,0-.66.18s.05.18.2.18a4,4,0,0,1,1,.1c.89.25,1.27.53,1.83,2L225.06,54c.48,1.22.61,1.57.91,1.57s.36-.41,1.07-1.93c.58-1.24,1.73-4,3.27-7.69,1.29-3.12,2.56-6.17,2.84-6.88.69-1.73,1.07-2.16,1.4-2.39a2.3,2.3,0,0,1,1.22-.3c.2,0,.3-.05.3-.18s-.15-.18-.43-.18c-.74,0-1.83.08-2,.08-.3,0-1.47-.08-2.49-.08-.41,0-.56.05-.56.2s.13.15.28.15a3.21,3.21,0,0,1,1,.1.63.63,0,0,1,.33.58,3.66,3.66,0,0,1-.23,1c-.56,1.83-4,10.68-5.43,14.09l-4.87-13Zm18.2,8.73c0,2.44,0,4.44-.13,5.51-.1.74-.23,1.29-.74,1.4a3.92,3.92,0,0,1-.76.1c-.15,0-.2.08-.2.15s.13.2.41.2c.76,0,2.36-.08,2.49-.08.74,0,2.44.15,6.27.15,1,0,1.19,0,1.37-.66s.33-2.26.33-2.46,0-.38-.15-.38-.18.1-.23.38c-.18,1-.48,1.55-1.14,1.83a7.28,7.28,0,0,1-2.44.28c-2.49,0-2.87-.33-2.94-2.08,0-.53,0-3.48,0-4.34V45.65a.16.16,0,0,1,.18-.18c.43,0,2.94.05,3.63.13,1,.1,1.22.53,1.32.89a2.59,2.59,0,0,1,.1.84c0,.13.05.23.18.23s.18-.28.18-.48.05-1.12.1-1.62c.08-.84.2-1.27.2-1.42s-.05-.2-.13-.2-.2.13-.38.33-.58.3-1.19.36-3.71.05-4,.05c-.13,0-.15-.08-.15-.25v-7c0-.18.05-.25.15-.25.28,0,3,0,3.48.08,1.37.15,1.62.46,1.8.86a2.72,2.72,0,0,1,.15.91c0,.2.05.33.2.33s.15-.15.18-.28c.05-.3.1-1.42.13-1.67.08-.71.2-1,.2-1.19s0-.23-.1-.23-.23.1-.36.13a6.78,6.78,0,0,1-1.09.13c-.58,0-5.63,0-5.81,0s-1.73-.08-2.87-.08c-.28,0-.41.05-.41.2s.1.15.2.15a4.75,4.75,0,0,1,.86.08c.84.18,1,.58,1.09,1.45s.05,1.52.05,5.48v4.47Zm15.48,0c0,2.44,0,4.44-.13,5.51-.1.74-.23,1.29-.74,1.4a3.92,3.92,0,0,1-.76.1c-.15,0-.2.08-.2.15s.13.2.41.2c.76,0,2.36-.08,2.39-.08s1.73.08,3.12.08c.28,0,.41-.08.41-.2s-.05-.15-.2-.15a11.08,11.08,0,0,1-1.14-.1c-.76-.1-.91-.66-1-1.4-.13-1.07-.13-3.07-.13-5.51v-.61c0-.13.05-.2.18-.2l3.12.05a.41.41,0,0,1,.33.15c.51.66,1.7,2.36,2.77,3.76,1.45,1.9,2.34,3.15,3.43,3.73a5.16,5.16,0,0,0,2.72.48h1.8c.46,0,.61-.05.61-.2s-.1-.15-.23-.15a6.09,6.09,0,0,1-1-.08A5.25,5.25,0,0,1,268,53c-1.47-1.57-3.2-3.83-5.28-6.5,2.28-2.11,3.07-4,3.07-5.86A4.44,4.44,0,0,0,264,37.17a7.81,7.81,0,0,0-4.64-1.12c-.79,0-2.72.08-3,.08-.13,0-1.73-.08-2.87-.08-.28,0-.41.05-.41.2s.1.15.2.15a4.75,4.75,0,0,1,.86.08c.84.18,1,.58,1.09,1.45s.05,1.52.05,5.48v4.47Zm2-10.56a.31.31,0,0,1,.2-.3,7.67,7.67,0,0,1,1.7-.15c2.72,0,4.39,1.9,4.39,5.08a4.63,4.63,0,0,1-1.55,3.91,3.28,3.28,0,0,1-1.9.48,7,7,0,0,1-2.66-.41.33.33,0,0,1-.18-.3v-8.3ZM276,55.6a6.67,6.67,0,0,0,3.83-1.07A5.26,5.26,0,0,0,282,50.32c0-2-.71-3.6-3.71-6l-.71-.56c-2.39-2-3.1-2.82-3.1-4.26a2.89,2.89,0,0,1,3.12-2.94c2.33,0,3,1.07,3.17,1.34a4.45,4.45,0,0,1,.33,1.27c0,.2.05.33.2.33s.18-.18.18-.58c0-1.73.1-2.56.1-2.69s-.05-.18-.25-.18a4.16,4.16,0,0,1-.89-.13,9.83,9.83,0,0,0-2.36-.25c-3.22,0-5.25,1.85-5.25,4.57,0,1.73.61,3.3,3.3,5.51l1.14.94c2.18,1.8,2.92,2.82,2.92,4.57a3.39,3.39,0,0,1-3.63,3.38c-1.7,0-3.38-.71-3.76-2.59a4.45,4.45,0,0,1-.08-.94c0-.2,0-.28-.18-.28s-.18.13-.2.41-.13,1.42-.13,2.69c0,.69,0,.79.38,1a7.7,7.7,0,0,0,3.4.69Zm14.82-12.18c0-4,0-4.67.05-5.48s.25-1.32.94-1.45a3.78,3.78,0,0,1,.63-.08c.1,0,.2-.05.2-.15s-.13-.2-.41-.2c-.76,0-2.36.08-2.49.08s-1.73-.08-2.56-.08c-.28,0-.41.05-.41.2s.1.15.2.15a3.33,3.33,0,0,1,.79.1c.56.13.81.56.86,1.42s.05,1.52.05,5.48v4.47c0,2.44,0,4.44-.13,5.51-.1.74-.23,1.29-.74,1.4a3.92,3.92,0,0,1-.76.1c-.15,0-.2.08-.2.15s.13.2.41.2c.76,0,2.36-.08,2.49-.08s1.73.08,3.12.08c.28,0,.41-.08.41-.2s-.05-.15-.2-.15a11.07,11.07,0,0,1-1.14-.1c-.76-.1-.91-.66-1-1.4-.13-1.07-.13-3.07-.13-5.51V43.42Zm14.44-6.27,3.2.05c2.44.05,3,.63,3.12,1.4l0,.28c0,.36.08.43.2.43s.18-.1.18-.33.08-2,.08-2.79c0-.15,0-.3-.13-.3a12.29,12.29,0,0,1-2.51.25H299.9c-.3,0-1.27-.05-2-.13a4.73,4.73,0,0,1-1.12-.3c-.1,0-.2.33-.25.48s-.56,2.39-.56,2.64.05.23.13.23.18-.05.25-.25a4.48,4.48,0,0,1,.43-.79c.41-.61,1-.79,2.59-.81l3.76-.05V47.88c0,2.44,0,4.44-.13,5.51-.1.74-.23,1.29-.74,1.4a3.92,3.92,0,0,1-.76.1c-.15,0-.2.08-.2.15s.13.2.41.2c.76,0,2.36-.08,2.49-.08s1.73.08,3.12.08c.28,0,.41-.08.41-.2s-.05-.15-.2-.15a11.08,11.08,0,0,1-1.14-.1c-.76-.1-.91-.66-1-1.4-.13-1.07-.13-3.07-.13-5.51V37.15Zm17.79-3c.13,0,.23-.05.23-.13s-.23-.18-.48-.36a22.69,22.69,0,0,1-2.49-1.85c-.23-.23-.25-.41-.38-.41a1.37,1.37,0,0,0-.41.13c-.3.13-1,.33-1.52.48-.18.05-.28.08-.28.2s.2.23.74.43,4.14,1.5,4.59,1.5Zm-7.77,18.35c-.46,1.27-1,2.23-2.13,2.39-.2,0-.56.05-.74.05s-.23.05-.23.15.15.2.48.2c1.19,0,2.59-.08,2.87-.08s1.37.08,2,.08c.23,0,.38-.05.38-.2s-.08-.15-.25-.15h-.25c-.43,0-1-.23-1-.74a5.36,5.36,0,0,1,.36-1.7L318.3,48a.27.27,0,0,1,.25-.2H324a.22.22,0,0,1,.23.15l2.36,6.24c.15.41,0,.63-.15.69s-.18.08-.18.18.28.15.76.18c1.75.05,3.6.05,4,.05s.51-.05.51-.2-.1-.15-.25-.15a3.28,3.28,0,0,1-1-.15c-.53-.15-1.27-.56-2.18-2.82-1.55-3.86-5.53-14.34-5.91-15.3-.3-.79-.41-.91-.56-.91s-.25.15-.56,1l-5.76,15.76Zm3.55-5.61c-.08,0-.13-.05-.08-.18L321,39.81q.19-.57.38,0l2.41,6.85c0,.1,0,.18-.1.18Z" transform="translate(-4.1 -7)"/><path class="cls-1" d="M57.44,37.62A46.48,46.48,0,0,0,47.13,41" transform="translate(-4.1 -7)"/><path d="M14.68,106c-.11,0-.14,0-.17,0s-.56-1.48-.63-1.79a.8.8,0,0,1,.31-.82,2.15,2.15,0,0,1,.44-.25c.11,0,.2-.1.17-.18s-.2-.06-.33,0-.8.28-1.11.37c-.48.14-.88.22-1,.26s-.13.08-.11.12.1.07.21.1a.62.62,0,0,1,.47.41c.08.16.14.33.22.54l.6,1.53c0,.07,0,.1-.1.14l-3.75,1.42c-.17.06-.22,0-.25,0L9,105.87a.88.88,0,0,1,.15-1,1.93,1.93,0,0,1,.54-.29c.16-.07.23-.13.19-.21s-.13-.07-.26,0-1.08.35-1.24.4c-.4.11-.61.12-.71.16s-.12.09-.1.13.11.1.16.16a2,2,0,0,1,.25.47c.12.27,1,2.71,1.21,3.17s.37,1.12.61,1.75c.07.18.13.26.25.22s.09-.13,0-.25a2.13,2.13,0,0,1-.13-.49c0-.44.16-.62.66-.84s.89-.36,3.17-1.23l2.64-1c1.44-.54,2.57-1,3.22-1.15.45-.12.81-.18,1,0a1.7,1.7,0,0,1,.22.41c0,.13.11.16.19.13s.12-.14.05-.31c-.17-.46-.5-1.2-.62-1.51s-.36-1.09-.64-1.84c-.07-.18-.14-.25-.25-.21s-.1.09,0,.25a4.36,4.36,0,0,1,.17.62c.08.38-.23.58-.65.78-.61.3-1.73.72-3.18,1.27l-1.22.46Z" transform="translate(-4.1 -7)"/><path d="M10.81,99c-2.38.55-2.81.65-3.32.74s-.84.06-1-.26A2.76,2.76,0,0,1,6.33,99c0-.15-.08-.22-.19-.19s-.12.12-.08.3c.11.49.37,1.39.44,1.69s.21,1.14.35,1.72c0,.19.09.27.2.24s.12-.11.09-.25a1.54,1.54,0,0,1,0-.42c0-.44.24-.6.77-.74s.93-.24,3.31-.79l2.75-.64c1.44-.33,2.67-.62,3.35-.71.47-.06.82-.07.94.16a1.7,1.7,0,0,1,.17.44c0,.15.09.19.17.17s.14-.12.1-.29c-.12-.5-.35-1.28-.41-1.57-.23-1-.33-1.86-.75-3.66-.15-.65-.24-.69-.6-.69a15.63,15.63,0,0,0-1.84.23c-.19,0-.26.07-.24.16s.12.1.27.08a2.29,2.29,0,0,1,1,.11c.49.22.62.7.78,1.36.23,1,.19,1.33,0,1.59s-1.3.58-3.3,1L10.81,99Z" transform="translate(-4.1 -7)"/><path d="M16.68,87.86c-.18-3.26-3.2-5.15-6.87-4.94s-5.88,2.32-5.71,5.51c.21,3.85,3.84,5.1,6.58,4.95s6.2-1.84,6-5.52Zm-.83-.49c.14,2.46-2.43,4.08-5.76,4.27-4,.22-5.11-1.4-5.19-2.87-.12-2.1,2-3.88,5.61-4.08,4.63-.26,5.29,1.79,5.34,2.69Z" transform="translate(-4.1 -7)"/><path d="M12,79.79c1.46.23,2.71.42,3.37.59.45.12.79.24.82.5a1.7,1.7,0,0,1,0,.47c0,.15,0,.21.1.22s.17-.06.2-.23c.08-.51.16-1.31.19-1.56s.22-1.12.34-1.86c0-.16,0-.26-.12-.28s-.13,0-.15.13a4.74,4.74,0,0,1-.16.61c-.12.37-.48.39-.95.36-.68,0-1.93-.23-3.4-.46l-.22,0c-.1,0-.12-.06-.11-.12L12,77a.24.24,0,0,1,.15-.21c.26-.13,1.43-.54,2.38-.92a7.28,7.28,0,0,0,2.6-1.38,2.17,2.17,0,0,0,.51-1.31L17.87,72c0-.15,0-.25-.12-.27s-.13,0-.15.13a1.63,1.63,0,0,1-.1.35c-.08.18-.27.69-1.3,1.25s-2.65,1.25-4.6,2.11a4.85,4.85,0,0,0-3.29-2.23A3,3,0,0,0,6,73.88a3.46,3.46,0,0,0-1,2.23c-.06.39-.16,1.36-.23,1.8,0,.27-.21,1.06-.32,1.73,0,.19,0,.28.1.3s.15-.05.18-.19a2.13,2.13,0,0,1,.12-.49c.18-.4.45-.46,1-.41s1,.12,3.37.5l2.79.43ZM5.83,77.3c-.13,0-.19-.06-.2-.15a2.27,2.27,0,0,1,0-.68c.12-.75,1-1.84,3.2-1.49a3.19,3.19,0,0,1,2.26,1.12,1.1,1.1,0,0,1,.13.94A2.76,2.76,0,0,1,11,78c-.06.08-.13.1-.3.07L5.83,77.3Z" transform="translate(-4.1 -7)"/><path d="M14.08,68.46c1.4.47,2.6.88,3.22,1.15.42.2.74.37.72.63a1.7,1.7,0,0,1-.09.46c0,.15,0,.21.06.24s.18,0,.23-.19c.16-.49.38-1.27.47-1.55.24-.72.61-1.5,1.23-3.34.16-.46.19-.57-.17-.79a15.66,15.66,0,0,0-1.64-.73c-.15-.05-.27-.09-.31,0s0,.13.18.21c.6.3.87.55.94.93a2.65,2.65,0,0,1-.2,1.21c-.42,1.24-.71,1.36-1.77,1-.45-.14-1.84-.62-2.36-.79l-1.2-.4c-.09,0-.15-.06-.13-.12.1-.29.52-1.49.63-1.71a.73.73,0,0,1,.82-.48,5.21,5.21,0,0,1,.56.14c.08,0,.15,0,.17-.06s-.13-.17-.25-.21-.71-.27-1-.39c-.76-.3-1-.44-1.08-.47s-.13,0-.15,0,0,.14.13.26.1.36,0,.66-.53,1.69-.63,2c0,.07-.09.06-.2,0l-3.85-1.3c-.11,0-.14-.08-.12-.14.08-.24.54-1.51.64-1.71.3-.58.52-.64.82-.63a2.12,2.12,0,0,1,.57.11c.14,0,.22,0,.25,0s-.05-.14-.13-.18-.84-.34-1-.4c-.69-.27-.85-.39-1-.43s-.14,0-.16,0a1,1,0,0,0,0,.22,4.17,4.17,0,0,1-.08.55c-.06.24-.88,2.66-1,3S6.89,66.39,6.67,67c-.06.18-.06.28,0,.31s.16,0,.21-.16a2.13,2.13,0,0,1,.21-.46c.24-.37.52-.38,1-.23s.92.28,3.23,1.06l2.68.9Z" transform="translate(-4.1 -7)"/><path d="M13.19,58.3l0,0c.38-.06,2.82-.37,5-.78s4.72-.85,5.95-1.1c.22,0,.45-.09.52-.22s0-.22-.36-.38l-8.85-4.92c-.79-.44-1-.69-1-1.06a1.13,1.13,0,0,1,.14-.36q.11-.2,0-.27c-.11-.06-.19,0-.27.19-.3.55-.49,1-.55,1.13s-.46.76-.78,1.35c-.09.17-.14.3,0,.36s.15,0,.22-.11a1.71,1.71,0,0,1,.41-.55c.29-.2.61-.15,1.48.3l6.41,3.3,0,.06c-.33.07-3.19.5-4.56.76C14,56.5,10.75,57,10.49,57s-.6.06-.66.18.12.25.4.41l8.32,4.6c1.22.67,1.61.94,1.56,1.29a1.85,1.85,0,0,1-.2.55c-.06.11-.07.2,0,.24s.2,0,.28-.17c.32-.59.56-1.14.61-1.24s.4-.64.8-1.38c.09-.16.11-.28,0-.34s-.15,0-.22.13a1.66,1.66,0,0,1-.42.54c-.22.17-.67.12-1.78-.45l-6-3.07Z" transform="translate(-4.1 -7)"/><path d="M24.54,48.58c1.13.95,2.11,1.76,2.58,2.24.33.33.55.61.44.85a1.69,1.69,0,0,1-.25.4c-.1.12-.09.19,0,.24s.18,0,.29-.09c.33-.39.81-1,1-1.27s.79-.87,1.33-1.52c.09-.11.12-.22,0-.29s-.14,0-.23.08a4.32,4.32,0,0,1-.47.46c-.3.25-.62.09-1-.17-.57-.39-1.54-1.21-2.68-2.15l-5.05-4.22,1.07-1.21c.76-.86,1.32-.84,1.66-.59l.14.1c.19.14.27.18.34.1s0-.14-.12-.25c-.32-.27-1.15-1-1.4-1.22s-.27-.21-.32-.14a4.54,4.54,0,0,1-.67,1L18,44.87a10.76,10.76,0,0,1-.88.93c-.23.23-.44.22-.5.3s0,.15.14.31,1,1.23,1.24,1.39.21.15.27.08,0-.13-.06-.23a2.15,2.15,0,0,1-.29-.53c-.15-.37,0-.66.44-1.25l1.18-1.51,5.05,4.22Z" transform="translate(-4.1 -7)"/><path d="M29.59,43.1c1,1.16,1.89,2.1,2.29,2.64.28.37.41.63.26.85a1.7,1.7,0,0,1-.3.36c-.11.1-.12.17-.07.23s.17.06.3-.05c.38-.34,1-.92,1.17-1.12s.89-.74,1.52-1.3c.1-.09.15-.2.07-.28s-.13-.05-.24,0a4.36,4.36,0,0,1-.53.39c-.33.21-.59.06-.91-.24-.5-.48-1.35-1.42-2.39-2.58l-1.89-2.1c-1.63-1.81-1.93-2.15-2.26-2.55s-.46-.71-.26-1a1.76,1.76,0,0,1,.25-.29c.1-.09.13-.16,0-.26s-.16,0-.29.08c-.36.33-.89.87-1.13,1.08s-.91.75-1.27,1.08c-.15.14-.21.23-.14.3s.16.07.26,0a1.48,1.48,0,0,1,.39-.26c.26-.13.54,0,.93.38s.66.7,2.29,2.51l1.89,2.1Z" transform="translate(-4.1 -7)"/><path d="M32,35.22l0,0c.36.13,2.65,1,4.77,1.73s4.54,1.53,5.75,1.9c.21.07.44.14.56.06s.06-.21-.13-.51L37.61,29.8c-.48-.76-.58-1.1-.34-1.4a1.13,1.13,0,0,1,.3-.25q.19-.13.12-.25c-.07-.11-.19-.05-.33,0-.53.34-.91.65-1,.73s-.77.44-1.33.81c-.16.1-.27.2-.2.3s.12.09.25,0a1.7,1.7,0,0,1,.62-.29c.35,0,.61.16,1.15,1l4,6-.05,0c-.32-.1-3-1.09-4.36-1.53-2.84-.93-5.9-2.06-6.14-2.16s-.55-.24-.67-.16,0,.28.16.55l5.08,8c.75,1.18,1,1.6.75,1.89a1.85,1.85,0,0,1-.44.38c-.11.07-.15.14-.1.22s.18.07.32,0c.56-.36,1-.73,1.14-.8s.66-.37,1.36-.83c.15-.1.23-.19.16-.3s-.13-.07-.25,0a1.66,1.66,0,0,1-.62.27c-.28,0-.64-.21-1.35-1.25L32,35.22Z" transform="translate(-4.1 -7)"/><path d="M49.35,31.59c.06,0,.11,0,.16.06l2.14,2.84a.28.28,0,0,1,0,.39c-.11.06-.15.11-.12.2s.18.05.41,0c1-.32,1.85-.65,2.29-.81s.54-.23.5-.35-.1-.1-.2-.06A2.28,2.28,0,0,1,54,34c-.28,0-.71-.06-1.67-1.25-1.61-2-5.81-7.44-6.4-8.16-.25-.3-.37-.41-.48-.37s-.13.24-.12.73l.46,10.57c0,.84,0,1.44-.52,1.73a3.13,3.13,0,0,1-.36.17c-.1,0-.13.08-.1.17s.13.12.28.07c.63-.23,1.27-.52,1.41-.57.37-.14.91-.28,1.29-.43.13,0,.19-.11.15-.23s-.08-.11-.23-.05l-.18.07a.44.44,0,0,1-.65-.29,3.78,3.78,0,0,1-.16-1l-.14-2.39c0-.1,0-.14.06-.16l2.69-1Zm-2.72.15s-.08,0-.09-.09l-.26-4.11c0-.06,0-.15,0-.16s.08.06.11.11l2.45,3.32s0,.09,0,.11l-2.22.82Z" transform="translate(-4.1 -7)"/><text class="cls-2" transform="matrix(0.78, -0.17, 0.21, 0.98, 51.38, 27.13)"> </text><text class="cls-3" transform="matrix(0.79, -0.13, 0.16, 0.99, 53.88, 26.59)"> </text><text class="cls-4" transform="matrix(0.8, -0.09, 0.11, 0.99, 56.39, 26.21)"> </text><text class="cls-2" transform="matrix(0.8, -0.05, 0.06, 1, 58.91, 25.94)"> </text><text class="cls-5" transform="matrix(0.8, -0.01, 0.01, 1, 61.45, 25.8)"> </text><text class="cls-4" transform="matrix(0.8, 0.04, -0.05, 1, 64, 25.8)"> </text><text class="cls-6" transform="matrix(0.8, 0.08, -0.1, 1, 66.53, 25.92)"> </text><text class="cls-7" transform="matrix(0.79, 0.12, -0.15, 0.99, 69.05, 26.18)"> </text><text class="cls-8" transform="matrix(0.78, 0.16, -0.2, 0.98, 71.58, 26.56)"> </text><path d="M80.22,34.75a3.15,3.15,0,0,0,2.14,0,3.52,3.52,0,0,0,2-2.33c.44-1.46.2-2.65-.85-4.52l-.25-.43c-.73-1.27-.85-1.9-.64-2.6a1.5,1.5,0,0,1,1.94-1.15,1.54,1.54,0,0,1,1.12,1.15,2.26,2.26,0,0,1,0,1.11c-.06.18,0,.29,0,.31s.17-.08.27-.42c.36-1.2.54-1.63.6-1.83s0-.17-.12-.24A5.07,5.07,0,0,0,84.88,23a2.86,2.86,0,0,0-3.71,2.06,5.07,5.07,0,0,0,.73,4.19l.4.72a3.27,3.27,0,0,1,.47,2.82,1.74,1.74,0,0,1-2.17,1.26A1.84,1.84,0,0,1,79.31,32a4.19,4.19,0,0,1,.12-.82c0-.12.07-.27,0-.3s-.19.13-.27.36-.41,1.15-.66,2c-.1.34-.09.43.08.59a3.68,3.68,0,0,0,1.68.94Z" transform="translate(-4.1 -7)"/><path d="M89.24,33c-.63,1.34-1.17,2.48-1.52,3.07-.23.4-.45.69-.71.64a1.71,1.71,0,0,1-.45-.14c-.14-.07-.21,0-.24,0s0,.18.16.25c.46.22,1.22.52,1.48.65s1,.54,1.8.9c.13.06.24.06.29,0s0-.14-.13-.2a4.33,4.33,0,0,1-.56-.34c-.32-.22-.24-.57-.08-1,.24-.65.78-1.8,1.41-3.13l2.81-6,1.44.73c1,.52,1.14,1.07,1,1.46l-.06.17c-.09.22-.1.31,0,.35s.13,0,.21-.18c.18-.38.68-1.36.83-1.67s.13-.31.05-.35a4.55,4.55,0,0,1-1.18-.38l-4.6-2.17A10.76,10.76,0,0,1,90,25.06c-.28-.17-.32-.37-.42-.41s-.15,0-.27.21-.92,1.32-1,1.55-.09.24,0,.28.13,0,.21-.11a2.15,2.15,0,0,1,.44-.42c.32-.24.64-.18,1.33.11L92,27l-2.81,6Z" transform="translate(-4.1 -7)"/><path d="M96.71,36.21c-1.41,1.86-1.73,3.1-1.66,4.08a3.58,3.58,0,0,0,1.6,2.6,3.37,3.37,0,0,0,2.83.69c1.56-.27,2.81-1.69,3.89-3.11l1-1.37c1.47-1.94,1.74-2.3,2.08-2.7s.61-.59.93-.44a1.57,1.57,0,0,1,.33.19c.12.09.2.11.27,0s0-.17-.13-.28c-.4-.3-1.07-.75-1.2-.85s-.63-.53-1.15-.93c-.14-.11-.23-.14-.3,0s0,.16.09.25a2,2,0,0,1,.34.32c.27.35.2.61-.11,1.06s-.56.78-2,2.73L102.31,40c-1,1.32-1.9,2.45-3,2.72a2.26,2.26,0,0,1-1.94-.38,2.07,2.07,0,0,1-.88-1.49c-.11-.89.18-1.9,1.59-3.75l1.36-1.79c1.47-1.94,1.74-2.3,2.08-2.7s.61-.59.93-.44a1.56,1.56,0,0,1,.33.19c.1.08.18.1.25,0s0-.17-.14-.29c-.37-.28-1-.73-1.29-.92s-.92-.76-1.46-1.17c-.15-.12-.24-.15-.31-.06s0,.16.09.25a2.13,2.13,0,0,1,.37.34c.27.35.2.61-.11,1.06s-.56.78-2,2.73l-1.42,1.87Z" transform="translate(-4.1 -7)"/><path d="M105.66,44.13c-1.12,1-2.09,1.78-2.64,2.17-.39.26-.7.44-.91.29a1.7,1.7,0,0,1-.35-.31c-.1-.12-.17-.13-.23-.07s-.06.17,0,.3c.33.39.9,1,1.09,1.2.42.49,1,1.49,1.63,2.2a5.28,5.28,0,0,0,4.23,2,7.28,7.28,0,0,0,4.31-1.85,6.57,6.57,0,0,0,2.29-3.6c.48-2.25-.91-3.88-2-5.1-.5-.59-1.06-1.17-1.32-1.47s-.72-.92-1.16-1.44c-.13-.15-.21-.19-.29-.12s-.06.15,0,.26a2.13,2.13,0,0,1,.29.41c.19.4.06.64-.34,1s-.72.65-2.57,2.23l-2.15,1.84Zm3.39-.78c1-.82,2-1.73,2.45-2.08.13-.11.22-.14.34-.09a2.78,2.78,0,0,1,.63.56,4.49,4.49,0,0,1,1.15,3.81,6.22,6.22,0,0,1-2.25,3.54,5.88,5.88,0,0,1-3.74,1.78,3.62,3.62,0,0,1-2.8-1.49c-.66-.77-.73-1.37-.61-1.7a4.33,4.33,0,0,1,.84-.9c.22-.21,1.15-1,2.45-2.13L109,43.35Z" transform="translate(-4.1 -7)"/><path d="M112.77,53.31c-1.33.82-2.4,1.48-3,1.78-.42.21-.69.29-.88.1a1.7,1.7,0,0,1-.3-.36c-.08-.13-.15-.15-.22-.11s-.09.16,0,.3c.27.44.74,1.1.89,1.35s.57,1,1,1.73c.07.12.17.18.26.12s.08-.12,0-.24a4.4,4.4,0,0,1-.29-.59c-.15-.36.05-.59.4-.85.56-.41,1.64-1.07,3-1.89l2.4-1.48c2.08-1.28,2.46-1.52,2.91-1.76s.78-.33,1-.08a1.75,1.75,0,0,1,.24.3c.07.11.14.16.24.09s.06-.15,0-.3c-.26-.42-.69-1-.86-1.31s-.58-1-.84-1.45c-.11-.17-.19-.25-.27-.19s-.1.15,0,.26a1.48,1.48,0,0,1,.19.43c.08.28-.08.54-.54.84s-.81.53-2.88,1.81l-2.4,1.48Z" transform="translate(-4.1 -7)"/><path d="M113,63.63c1.26,3,4.73,3.78,8.12,2.36s4.77-4.16,3.53-7.11c-1.49-3.55-5.32-3.52-7.85-2.46s-5.23,3.81-3.8,7.21Zm.95.19c-1-2.27.92-4.66,4-6,3.69-1.55,5.28-.39,5.85,1,.81,1.94-.6,4.33-3.92,5.72-4.28,1.79-5.59.09-5.93-.74Z" transform="translate(-4.1 -7)"/><path d="M120.09,69.41c-1.45.28-2.69.52-3.37.59-.47,0-.83,0-.94-.2a1.7,1.7,0,0,1-.15-.44c0-.15-.09-.19-.16-.18s-.14.12-.11.28c.1.5.3,1.29.34,1.53s.17,1.13.31,1.86c0,.16.1.24.21.22s.12-.07.1-.18a4.74,4.74,0,0,1-.06-.63c0-.39.32-.53.77-.66.65-.19,1.89-.43,3.36-.71l.22,0c.09,0,.13,0,.15.08l.18,1.1a.24.24,0,0,1-.07.25c-.2.21-1.16,1-1.93,1.67a7.28,7.28,0,0,0-2,2.17,2.17,2.17,0,0,0,0,1.41l.23,1.2c0,.15.08.23.2.21s.12-.07.1-.18a1.62,1.62,0,0,1,0-.36,2.48,2.48,0,0,1,.8-1.62c.83-.93,2.07-2.07,3.62-3.54a4.85,4.85,0,0,0,3.85,1,3,3,0,0,0,2-1.27,3.46,3.46,0,0,0,.23-2.45c-.08-.39-.31-1.34-.39-1.77-.05-.27-.16-1.07-.29-1.74,0-.19-.08-.27-.2-.25s-.13.1-.1.24a2.12,2.12,0,0,1,0,.5c0,.44-.26.59-.79.72s-.94.21-3.34.67l-2.77.54Zm6.61.27c.13,0,.19,0,.24.07a2.28,2.28,0,0,1,.19.66c.14.74-.27,2.05-2.51,2.49a3.19,3.19,0,0,1-2.51-.29c-.25-.19-.34-.34-.44-.84a2.76,2.76,0,0,1,0-1c0-.1.09-.13.26-.17l4.79-.93Z" transform="translate(-4.1 -7)"/><path d="M122.66,81c-2.33,0-3.52.47-4.26,1.12A3.58,3.58,0,0,0,117.27,85a3.37,3.37,0,0,0,1.14,2.68c1.15,1.09,3,1.24,4.82,1.25H125c2.44,0,2.89,0,3.4,0s.83.13.91.48a1.56,1.56,0,0,1,0,.37c0,.15,0,.23.14.23s.15-.09.15-.27c0-.5,0-1.31,0-1.46s.05-.82.06-1.48c0-.18,0-.27-.14-.27s-.14.08-.15.22a2,2,0,0,1-.05.46c-.11.42-.37.52-.92.55s-1,0-3.4,0h-2c-1.65,0-3.1-.06-4-.77a2.26,2.26,0,0,1-.86-1.78,2.07,2.07,0,0,1,.67-1.6c.65-.62,1.63-1,4-1H125c2.44,0,2.89,0,3.4,0s.83.13.91.48a1.55,1.55,0,0,1,0,.37c0,.13,0,.21.14.21s.14-.09.15-.28c0-.46,0-1.27,0-1.58s.06-1.19.06-1.87c0-.19,0-.28-.14-.28s-.14.08-.15.22a2.12,2.12,0,0,1-.05.5c-.11.42-.37.52-.92.55s-1,0-3.4,0Z" transform="translate(-4.1 -7)"/><path d="M118.64,92c-.52-.19-1.1-.44-1.11-.81a1.34,1.34,0,0,1,0-.39c0-.12,0-.21-.06-.23s-.2.06-.23.18c-.1.4-.2,1-.25,1.25s-.24.77-.37,1.3c0,.19,0,.31.1.34s.13-.06.15-.16a2,2,0,0,1,.21-.5.49.49,0,0,1,.59-.25c.25.06.45.12.72.22l6,2.17v0c-1.28.15-3.42.42-3.78.45s-3.1.45-3.89.57c-.52.09-.86.13-.89.25s.1.21.76.67l6.41,4.45v.05l-7-.93c-.45-.06-.64-.14-.66-.23s-.06-.16-.14-.18-.16,0-.26.32c-.17.49-.64,2.2-.71,2.51s0,.34.09.37.13-.06.16-.17a2.1,2.1,0,0,1,.34-.74c.23-.34.71-.35,1.72-.23l9.91,1.22c.34,0,.51,0,.54-.11s-.08-.22-.31-.37l-8.07-5.57,9.63-1.26c.45-.06.54-.12.57-.22s-.1-.21-.35-.31L118.64,92Z" transform="translate(-4.1 -7)"/><text class="cls-7" transform="matrix(-0.31, 0.74, -0.92, -0.39, 109.49, 96.89)"> </text><text class="cls-2" transform="matrix(-0.34, 0.72, -0.9, -0.43, 108.48, 99.23)"> </text><text class="cls-9" transform="matrix(-0.39, 0.7, -0.88, -0.48, 107.39, 101.52)"> </text><text class="cls-10" transform="matrix(-0.43, 0.68, -0.84, -0.54, 106.2, 103.77)"> </text><path d="M111.69,118.79c-1.77-1.51-3-1.91-4-1.89a3.58,3.58,0,0,0-2.69,1.45,3.37,3.37,0,0,0-.86,2.78c.18,1.57,1.53,2.91,2.88,4.07l1.31,1.12c1.85,1.58,2.2,1.88,2.57,2.23s.55.64.39,1a1.57,1.57,0,0,1-.21.31c-.1.12-.13.2,0,.27s.17,0,.28-.11c.33-.38.81-1,.91-1.14s.57-.59,1-1.09c.12-.14.15-.23.07-.3s-.16,0-.25.07a2,2,0,0,1-.34.32c-.36.25-.62.16-1.05-.17s-.75-.61-2.6-2.19l-1.53-1.3c-1.26-1.07-2.33-2-2.54-3.15a2.26,2.26,0,0,1,.49-1.91,2.07,2.07,0,0,1,1.54-.79c.9-.06,1.88.29,3.65,1.8l1.71,1.46c1.85,1.58,2.2,1.88,2.57,2.23s.55.64.39,1a1.55,1.55,0,0,1-.21.31c-.08.1-.11.18,0,.25s.17,0,.29-.12c.3-.35.79-1,1-1.23s.81-.88,1.25-1.39c.13-.15.16-.24.07-.31s-.16,0-.25.07a2.11,2.11,0,0,1-.36.35c-.36.25-.62.16-1.05-.17s-.75-.61-2.6-2.19l-1.78-1.52Z" transform="translate(-4.1 -7)"/><path d="M105.23,131.18l0,0c-.37-.1-2.72-.84-4.88-1.38s-4.64-1.19-5.87-1.47c-.22-.06-.45-.1-.56,0s0,.22.17.5l6,8.16c.53.72.65,1.05.45,1.37a1.14,1.14,0,0,1-.28.27q-.18.14-.1.25c.08.1.19,0,.32-.06.5-.38.86-.71,1-.8s.74-.5,1.27-.9c.15-.12.26-.21.18-.32s-.13-.08-.25,0a1.7,1.7,0,0,1-.6.33c-.34.06-.62-.12-1.22-.89l-4.45-5.67.05,0c.33.07,3.11.87,4.46,1.21,2.9.72,6,1.63,6.28,1.7s.57.2.68.11,0-.28-.2-.54L102,125.41c-.83-1.12-1.07-1.52-.88-1.83a1.85,1.85,0,0,1,.41-.41c.1-.08.14-.15.09-.23s-.19-.06-.32,0c-.53.4-1,.81-1.08.88s-.63.42-1.3.92c-.14.11-.22.2-.14.31s.14.06.25,0a1.67,1.67,0,0,1,.6-.31c.27-.07.66.17,1.43,1.15l4.18,5.29Z" transform="translate(-4.1 -7)"/><path d="M93.32,133.88c-.73-1.37-1.33-2.49-1.59-3.12-.18-.43-.25-.71,0-.88a1.69,1.69,0,0,1,.38-.27c.14-.07.16-.14.12-.21s-.15-.1-.3,0c-.45.24-1.14.66-1.4.8s-1,.5-1.79.9c-.12.07-.19.16-.14.26s.12.08.24,0a4.34,4.34,0,0,1,.61-.25c.37-.12.59.09.82.45.37.58,1,1.7,1.7,3.08l1.33,2.49c1.15,2.15,1.36,2.55,1.58,3s.28.8,0,1a1.74,1.74,0,0,1-.32.22c-.11.06-.17.13-.11.24s.15.06.3,0c.43-.23,1.08-.63,1.36-.78s1.06-.51,1.5-.74c.18-.1.26-.17.21-.26s-.14-.11-.26,0a1.47,1.47,0,0,1-.44.16c-.29.06-.53-.12-.81-.59s-.48-.84-1.62-3l-1.33-2.49Z" transform="translate(-4.1 -7)"/><path d="M83.71,134.32c-.47-.64-.62-.82-.78-.77s-.16.33-.18,1.31,0,2.7,0,5.18c0,2.09-.07,3-.06,4.61a3.24,3.24,0,0,1-.2,1.6.94.94,0,0,1-.53.39c-.12,0-.18.1-.15.2s.14.1.3.05c.36-.12.92-.36,1.13-.43s.68-.18,1.29-.39c.23-.08.33-.15.29-.27s-.14-.09-.25-.05a1.39,1.39,0,0,1-.51.09.31.31,0,0,1-.26-.23,2.39,2.39,0,0,1-.08-.6c0-1.1-.13-6.53-.18-8.38l0,0L88,142.8a5.72,5.72,0,0,1,.68,1.07.43.43,0,0,1,0,.36.77.77,0,0,1-.44.27c-.11,0-.17.09-.14.2s.18.09.33,0c.61-.21,1.18-.45,1.48-.55s1.13-.33,1.78-.55c.18-.06.31-.12.27-.24s-.08-.12-.19-.09a1.59,1.59,0,0,1-.49.1c-.49,0-.75-.1-1.32-.84l-6.22-8.24Z" transform="translate(-4.1 -7)"/><path d="M76.53,140c-.2-1.46-.37-2.72-.4-3.4,0-.47,0-.83.25-.93a1.7,1.7,0,0,1,.45-.13c.15,0,.2-.08.19-.16s-.11-.15-.28-.12c-.51.07-1.3.23-1.6.27-.75.1-1.62.12-3.54.39-.48.07-.6.08-.63.51a15.65,15.65,0,0,0,.08,1.79c0,.16,0,.29.14.27s.11-.08.11-.26c0-.66.11-1,.41-1.26a2.65,2.65,0,0,1,1.17-.35c1.3-.18,1.53,0,1.71,1.13.08.46.26,1.92.34,2.46l.17,1.26c0,.1,0,.16-.05.17-.31,0-1.57.2-1.81.2a.73.73,0,0,1-.8-.52,5.2,5.2,0,0,1-.13-.57c0-.08,0-.14-.13-.13s-.09.19-.07.32.08.75.09,1.07c.07.82,0,1.08.06,1.17s.06.12.11.11.1-.1.18-.23.28-.25.58-.32,1.75-.27,2-.31c.08,0,.1.05.11.16l.55,4c0,.11,0,.16-.07.17-.25,0-1.59.19-1.82.18-.65,0-.8-.18-.93-.46a2.13,2.13,0,0,1-.15-.56c0-.14-.06-.22-.15-.21s-.1.11-.1.19.07.9.08,1.06c.06.74,0,.94,0,1s0,.14.1.13a1,1,0,0,0,.2-.09,4.13,4.13,0,0,1,.53-.17c.24,0,2.77-.4,3.18-.45s1.16-.11,1.84-.2c.19,0,.28-.07.26-.18s-.1-.13-.24-.11a2.11,2.11,0,0,1-.5,0c-.43-.05-.57-.29-.67-.83s-.16-1-.49-3.37l-.38-2.8Z" transform="translate(-4.1 -7)"/><path d="M68.62,140.89c.07-1.48.12-2.74.22-3.41.07-.46.15-.81.41-.87a1.7,1.7,0,0,1,.46,0c.15,0,.21,0,.21-.12s-.08-.16-.25-.17c-.51,0-1.32,0-1.57,0s-1.14-.1-1.88-.13c-.17,0-.26,0-.26.15s0,.13.15.14a4.76,4.76,0,0,1,.63.09c.38.08.44.44.46.9,0,.68,0,1.94-.09,3.43v.22c0,.1,0,.13-.11.12l-1.11-.08a.24.24,0,0,1-.23-.12c-.16-.25-.7-1.37-1.17-2.27a7.28,7.28,0,0,0-1.65-2.44,2.17,2.17,0,0,0-1.36-.37l-1.22-.06c-.15,0-.25,0-.25.15s0,.13.15.14a1.62,1.62,0,0,1,.36.06,2.48,2.48,0,0,1,1.39,1.16c.71,1,1.53,2.5,2.59,4.34a4.85,4.85,0,0,0-1.86,3.51,3,3,0,0,0,.77,2.24,3.46,3.46,0,0,0,2.33.8c.4,0,1.37,0,1.81,0,.27,0,1.08.1,1.76.13.19,0,.28,0,.29-.13s-.07-.15-.21-.15a2.14,2.14,0,0,1-.5-.07c-.42-.13-.51-.39-.51-.94s0-1,.13-3.4l.13-2.82Zm-1.81,6.36c0,.13,0,.19-.13.22a2.28,2.28,0,0,1-.68,0c-.76,0-1.93-.75-1.83-3a3.19,3.19,0,0,1,.87-2.37,1.1,1.1,0,0,1,.92-.23,2.77,2.77,0,0,1,1,.2c.09.05.11.12.1.29l-.22,4.87Z" transform="translate(-4.1 -7)"/><path d="M57.32,135.3a3.15,3.15,0,0,0-2.14.18,3.52,3.52,0,0,0-1.8,2.45c-.34,1.49,0,2.66,1.13,4.46l.27.41c.81,1.22,1,1.84.81,2.56a1.5,1.5,0,0,1-1.86,1.27,1.54,1.54,0,0,1-1.19-1.08,2.26,2.26,0,0,1-.09-1.11c0-.19,0-.29-.06-.31s-.17.09-.25.44c-.28,1.22-.44,1.66-.48,1.87s0,.17.13.23a5.05,5.05,0,0,0,1.6.65A2.86,2.86,0,0,0,57,145a5.07,5.07,0,0,0-1-4.13l-.45-.7a3.27,3.27,0,0,1-.65-2.78A1.74,1.74,0,0,1,57,136a1.84,1.84,0,0,1,1.43,2,4.16,4.16,0,0,1-.07.82c0,.13,0,.27.06.29s.18-.14.24-.37.34-1.17.53-2c.08-.34.06-.43-.12-.59a3.68,3.68,0,0,0-1.73-.83Z" transform="translate(-4.1 -7)"/><path d="M49.65,137.94c.54-1.46,1-2.65,1.27-3.26.2-.42.36-.65.63-.62a1.7,1.7,0,0,1,.46.1c.14.05.21,0,.24,0s0-.18-.19-.24c-.48-.18-1.26-.41-1.53-.51s-1.07-.44-1.86-.74c-.13,0-.25,0-.28.07s0,.14.15.19a4.36,4.36,0,0,1,.59.29c.34.19.32.5.21.92-.19.67-.63,1.86-1.17,3.32l-1,2.65c-.84,2.29-1,2.71-1.2,3.18s-.41.74-.76.69a1.75,1.75,0,0,1-.38-.09c-.12,0-.2,0-.25.08s.05.16.21.21c.46.17,1.19.39,1.49.5s1.09.45,1.55.62c.19.07.3.08.33,0s0-.18-.14-.22a1.47,1.47,0,0,1-.41-.22c-.24-.17-.26-.47-.1-1s.31-.91,1.15-3.2l1-2.65Z" transform="translate(-4.1 -7)"/><path d="M42.43,134.88c.68-1.31,1.26-2.44,1.63-3,.25-.4.48-.67.74-.61a1.7,1.7,0,0,1,.44.16c.14.07.2.05.24,0s0-.18-.15-.26c-.46-.24-1.2-.57-1.46-.7s-1-.58-1.77-1c-.13-.06-.24-.07-.29,0s0,.14.12.21a4.4,4.4,0,0,1,.55.36c.31.23.22.58,0,1-.26.64-.84,1.77-1.52,3.08L38,140l-1.41-.79c-1-.55-1.1-1.11-.93-1.49l.07-.16c.1-.22.11-.3,0-.35s-.14,0-.22.17c-.19.37-.74,1.34-.89,1.64s-.14.31-.06.35a4.55,4.55,0,0,1,1.17.42l4.52,2.34a10.78,10.78,0,0,1,1.1.66c.27.18.31.38.4.42s.15,0,.28-.2,1-1.29,1.09-1.52.09-.24,0-.28-.13,0-.21.11a2.15,2.15,0,0,1-.45.4c-.33.23-.64.15-1.32-.16l-1.73-.82,3-5.84Z" transform="translate(-4.1 -7)"/><path d="M33,128.2c-.05,0-.06-.09,0-.17l1.32-3.3a.28.28,0,0,1,.32-.22c.11.07.17.07.23,0s-.05-.18-.22-.34c-.78-.66-1.52-1.25-1.88-1.54s-.48-.34-.56-.24,0,.14.05.2a2.28,2.28,0,0,1,.38.39c.16.23.31.64-.21,2.07-.88,2.42-3.35,8.82-3.66,9.71-.13.37-.16.53-.07.6s.27,0,.68-.28l8.8-5.88c.7-.47,1.23-.74,1.75-.45a3.16,3.16,0,0,1,.33.22c.08.06.14.07.2,0s0-.17-.09-.28c-.52-.42-1.1-.82-1.22-.91-.31-.25-.71-.63-1-.89-.11-.09-.19-.11-.27,0s0,.12.07.22l.15.12a.44.44,0,0,1,.09.71,3.77,3.77,0,0,1-.76.65l-2,1.36c-.08.06-.12.07-.17,0L33,128.2Zm1.54,2.25s0,.08,0,.12l-3.38,2.35c-.05,0-.12.09-.15.07s0-.09,0-.15L32.61,129s.06-.08.11,0l1.85,1.47Z" transform="translate(-4.1 -7)"/><path d="M30.52,120.27a3.15,3.15,0,0,0-1.85-1.08,3.52,3.52,0,0,0-2.89,1c-1.14,1-1.56,2.16-1.64,4.3v.49c0,1.47-.26,2.06-.81,2.56a1.5,1.5,0,0,1-2.25,0,1.54,1.54,0,0,1-.35-1.57,2.26,2.26,0,0,1,.57-1c.14-.13.19-.22.13-.29s-.19,0-.45.22c-.93.84-1.31,1.11-1.47,1.25s-.08.15,0,.26a5.06,5.06,0,0,0,.94,1.45,2.86,2.86,0,0,0,4.24.18,5.07,5.07,0,0,0,1.56-4l0-.83a3.27,3.27,0,0,1,1.07-2.65,1.74,1.74,0,0,1,2.51.06,1.84,1.84,0,0,1,0,2.45,4.16,4.16,0,0,1-.53.63c-.1.09-.19.19-.12.28s.23,0,.41-.16,1-.77,1.61-1.36c.26-.24.3-.32.24-.55a3.68,3.68,0,0,0-.94-1.67Z" transform="translate(-4.1 -7)"/><text class="cls-7" transform="matrix(-0.5, -0.63, 0.78, -0.62, 24.28, 110.67)"> </text><text class="cls-11" transform="matrix(-0.48, -0.64, 0.8, -0.6, 23.31, 109.43)"> </text><path d="M65.34,27.73c0,.15-.17.26-.13.41.17,0,1.32,0,1.48,0s0-.16,0-.27a4.23,4.23,0,0,0-1.19-.18.68.68,0,0,0-.14,0Z" transform="translate(-4.1 -7)"/><path class="cls-12" d="M65.34,27.73c0,.15-.17.26-.13.41.17,0,1.32,0,1.48,0s0-.16,0-.27a4.23,4.23,0,0,0-1.19-.18.68.68,0,0,0-.14,0Z" transform="translate(-4.1 -7)"/><path class="cls-13" d="M74.51,16.43m5.23-2.14" transform="translate(-4.1 -7)"/><path d="M106.87,92.18a28.15,28.15,0,0,1-4.71-9.45,23.89,23.89,0,0,1-1.34-6.64,7.62,7.62,0,0,0-1-4.06,8.13,8.13,0,0,1-1.61-4.72,12.9,12.9,0,0,0-.51-2.92c-1.67-6-5-11.22-8.36-16.42a2.17,2.17,0,0,0-.84-.76q-5.06-2.41-10.15-4.76c-.9-.42-1.84-.73-2.73-1.17-1.18-.58-2.05-1.51-1.71-2.89.6-2.4,1.25-4.85,2-7.23.51-1.59,1.17-3.13.32-4.77a4.36,4.36,0,0,1,.05-4.13c.7-1.43,1.5-2.82,2.16-4.27.95-2.08.66-2.06-1-3.18A19,19,0,0,0,73.93,13c-10.64-3.9-17.08.21-19.14,1.3.15.74.32,1.55.49,2.35.27,1.25,1.82,5.07,1.69,5.86-1.19,7.24-.8,7.24-.07,13,.13,1.48.19,4.27.19,4.27l-5.65,3.7a4.44,4.44,0,0,0-2.3-1.87,7.92,7.92,0,0,1-1.4-.63c-.94-.65-1.31-.85-2.6-1.7-.36,3.36-3.54,6-1.17,9.09a24.08,24.08,0,0,0-5.79,5.92,37.25,37.25,0,0,0-3.25,6.49A46.77,46.77,0,0,0,31,82.53c.25,3.22.35,6.18-1.18,9.1s-1,5.58,1.57,7.84A4.86,4.86,0,0,1,33,102.22c.62,5.14.93,10.32,1.62,15.44.18,1.33-.13,1.11,1.45,3,.05,0,.85.51-.22-.51-.85-.81-.35-2.51-.43-3.44-.32-3.62-.64-7.24-1-10.87-.1-1-.24-2.09-.38-3.26.35.15.51.17.53.23.3,1.11.59,2.22.86,3.34,1.52,6.21,3.17,12.38,6.23,18.05a5.59,5.59,0,0,0,2.74,2,34,34,0,0,0,6,.3,3,3,0,0,0,2.95-2.41c.24-.8.33-4.58.77-5.33.26.08.93,3.9,1.19,4-.38,3-.69,4.57-1.07,7.59l.51.16c.52-1.21.61-3.18,1.13-4.39a2,2,0,0,1,.55,1.57c0,1.33,0,1.67,0,3.16.4-.26.39-2.22.59-2.34a10.38,10.38,0,0,0,1.6,2.85c-2.38-5.57-3-10.18-4.57-15.84a10.43,10.43,0,0,0,7.18-3.85c1.16-1.46,2.13-3.08,3.19-4.62.82-1.19,1.65-2.37,2.48-3.56l2.3,4.08c-2.26,8.16-4.2,16.13-6.93,24.38.05,0,.49,0,.55,0,.43-.66,1.79-5,2.35-5.83.28.67-.47,5.18-1.38,5.89l1.76,0c.2-3.51.34-6.35.54-9.77.19,0,.78-2.46,1-2.45,0,3.44-.49,8.86-.49,12.3.16.06,1.18.08,1.22-.25.11-.81.06-1.65.11-2.47.27-4.36-.35-9.09-.06-13.45.25,0,1-3.65,1.29-3.65,0,5.34.35,14.49.35,19.82.22,0,.5-.12.72-.1a9.19,9.19,0,0,0,.25-.94c.12-.75.17-1.51.31-2.26.32-1.66,0-4.07,0-5.73,0-3.24-.69-6.92-.78-10.17l.09-3.62c.19,0,2.24-2,2.15,1.69.27,7,.56,13.7.83,20.69.22,0,.56-.1.78-.08a7.46,7.46,0,0,0,.12-1.53c-.11-6.72-.25-13.45-.38-20.17,0-1.5.36-1.82,1.86-1.57,1.23.2,2.46.36,4,.59,0,7.13,0,14.15,0,21.47H80V112.61l.46,0c1.85,5.2,2.14,10.68,2.66,16.18l.87-.31a70.82,70.82,0,0,1,1.2-7.13s0,2.39,0,2.4l.48,4,.59.1a3.7,3.7,0,0,0,.38-1.31c-.25-2.29-.61-4.57-.86-6.86-.1-.94-.14-3.44-.14-4.4a12.89,12.89,0,0,1,2,4.57c.43,2.27.49,4.19.77,6.88.27-.74.62-.83.67-1.36.19-2,.3-4.06.44-6.1q.74-10.6,1.48-21.21a6.74,6.74,0,0,0,0-1.32c-.2-1.55-.9-2.82-2.52-3.07-2.07-.31-4.18-.37-6.18-.54-.07.11,0-.14.21-.33a6.45,6.45,0,0,1,10.35,1A12.69,12.69,0,0,1,94.32,97c1.06,4,2.16,8,2.92,12,.81,4.26.92,7.33,1.27,10.21a2.58,2.58,0,0,0,.71-.72,40.92,40.92,0,0,0,2-4.12,13,13,0,0,0,.87-4.45,4.58,4.58,0,0,1,.92-3.33c.54-.7,1-1.44,1.48-2.19.94-1.48,1.63-3.06,1.12-4.83a2.22,2.22,0,0,1,.46-2.21c1.15-1.55,2.2-3.45.84-5.16ZM92.22,91l1.32.39c.47.14.94.31,1.42.43,1.35.32,1.81-.29,1.67-1.58a3.32,3.32,0,0,0-3.3-2.89c-1-.09-5.26-.22-6.33-.22,2.09-1.92,6.55-3.53,15.6,3.1-.55,0-1.71-.26-2.33-.26,1.14,1.67.83,2.08,1.82,3.64a23.5,23.5,0,0,1,1.62,3.06c1.76,4,1.2,6.75-1.94,10a7,7,0,0,1-.23-7.2,7.08,7.08,0,0,0,.68-2.36c.25-1.71-.52-2.85-2.41-3.48a15.36,15.36,0,0,0-.38,7.76c.49,3.15,1.13,6.28,1.51,9.44a6.58,6.58,0,0,1-1.86,5.58c-1.24-8.85-1.4-17.77-6.86-25.43ZM100,96.73l.55,0c1,1.21,0,2.33-.55,3.47V96.73ZM87.35,84.65l.49.49h.06a3.19,3.19,0,0,0,1-.64c1.79-2.38,4.15-1.41,6.35-1.33l.11.53-7.5,1.44-.05,0h0c-.7.55-1.39,1.11-2.3,1.85.64-3.28,5.72-7.51,8.15-6.78-1.26.76-2.39,1.36-3.43,2.09s-1.95,1.56-2.91,2.35Zm-4,6.07c2-4.57,14.48-3,11.46.17a13.08,13.08,0,0,0-4.48-1.38,27.39,27.39,0,0,0-7,1.21Zm-2.55,2.89c-.46,1-1,1.05-1.93.85a9.64,9.64,0,0,0-7.74,1.3,15.62,15.62,0,0,0-1.36,1.17c1.26,1.9,3.27.21,4.84,1.38a25.14,25.14,0,0,1-1.47,3.31,1.74,1.74,0,0,1-1.59.57c-3.54-1.58-7-3.27-10.65-5L74.11,72.67,87.8,79.3c-1,2.24-2,4.32-3,6.37-1.31,2.66-2.73,5.27-4,8ZM82,66.94c0-3,.09-3.52.09-6.55.18,0,.77-2,.95-2,.56,2.54.63,6.54-.69,14.78-.18,0-.17-6.2-.34-6.2ZM73.15,53.61V48.3c1.89,1.35,2.18,11.95.72,15.92-.26-1.84-.44-3.31-.68-4.78a27.28,27.28,0,0,0-1-4.27c-1.56,2-1.72,4.29-2,6.54a28.41,28.41,0,0,0,1,12.39c-.06.53-3.45,6.54-3.71,7.5,0-1.11-1.06-.7-1-2,.28-4.83,1.58-12.29,1.68-16.11.07-2.7.42-5.24.39-7.93a11.4,11.4,0,0,0-.45-2.92c-.11-.39-.66-.67-1-1-.27.46-.73.91-.77,1.4-.22,2.43-.34,4.87-.5,7.31S65.1,70,64.49,72c-.46-4.37.66-19.2,1.93-23.28h5.3l.95,4.9ZM71.52,37.78c1.54,2.06-.81,3.28-1.09,4.95l-.38-.2a14.75,14.75,0,0,0-2.26,2.05c-.62.84-1.1,1.51-2.32,1.44a9.68,9.68,0,0,0-2.68.73l-1.15-4.82-.28-.12c-.13.71-.3,1.43-.38,2.15s-.08,1.53-.11,2.3l-.59.09c-.31-.83-.65-1.64-.92-2.48a8,8,0,0,0-.54-2.06c-1.41-2,.23-3.67.42-5.48l.82-.57a6.19,6.19,0,0,1,3.46.09c.68,1.25,1.41,2.08,1.93,3.25s.88,2.43,1.33,3.71c.25-.18.38-.23.39-.29.16-1.38-1.83-6.2-2.82-7.06a3,3,0,0,0-2.63-.7c-.38,0-.39-.13-1.11,0-.31.06-1.48.28-1.69.76a15.39,15.39,0,0,1-1.34,3,8,8,0,0,1,.36-1.9c.47-1,.92-2.69,1.7-2.89,2.08-.55,4.48-1.09,5.91,1.54.84,1.55,1.79,3,2.59,4.39l3.87-9c.76,2.29.49,5.6-.33,6.94-.06.09-.18.23-.15.27Zm3.8-16.22c-.12,1.15-.46,1.79-1.78,1.52A61.2,61.2,0,0,0,58.14,22l0,0a.94.94,0,0,0,0-.29c-.08-.58-.26-.92-.34-1.49,3.1-1.19,13.42-.33,17.56,1.36Zm-1.16-2-.55-.24L75,16.11c1,1.67.61,2.77-.88,3.47Zm-1.58-3.21.48,0-.15,3.14L71,19.37l1.57-3Zm-2.77,2.79c-1.32-1.67-1.23-2.45.48-4.2,1.38,1.58.61,2.9-.48,4.2Zm-3.72-.44L67.25,15l.31,0L68,18.71Zm-1.78,0c-1.49-1.17-1.37-2.16.65-4.54,1.3,1.86,1.08,3.21-.65,4.54Zm-3.57,0,.48-3.19.4-.06,1.22,3.25Zm-2-3.83c1,1.16,2.07,2.19.7,3.85-1.52-.65-1.63-1.23-.7-3.85ZM57.51,28.11c.43-.09,1.83-.46,2,0s0,.81-.37.81H57.75c0-.11-.27-.71-.24-.81Zm.12,6.21c-.14-.92,0-2.27-.14-3.16L57.33,30c4.08-1.19,1.64,3.06.3,4.34Zm0-8.24a4.36,4.36,0,0,1,2,.46c-.39.33-2.28-.3-2-.46Zm0-.67.44-2.54a56.39,56.39,0,0,1,12.36.66c.39,0,1,.91,1,1.45C72,29.55,70.16,33.45,68,37.1l-5.09-6-.3.14.25,1-2.59.44c.13-1.55.36-3.06.36-4.57,0-1.82-.56-2.26-3-2.7Zm17.17,1.7c-.43,1-1.07,2.38-2.38,2.68,0-.9.31-3.08.31-5.79.79.22,1.32.29,2.3.56a4.59,4.59,0,0,1-.24,2.56ZM63.2,59.05c.11-.8.24-1.6.34-2.41s.11-1.65.25-2.46a7.17,7.17,0,0,1,.87-2.43c-.31,7.46-1.7,14.89-.42,22.34l.49.1a28.78,28.78,0,0,0,.77-3.51c.39-4,.67-8,1-12a24.39,24.39,0,0,1,.9-4.47c.41,8.86-.86,20.22-2.63,28.88C63.78,75.13,62,69,60.89,61.86c-.55-3.4-1.51-6.72-1.67-10.16-2.43,1.58-.62,7.44-1.26,9.17-.56-1.37-3-4.52-2.07-7.88.66-2.36,1.14-5.24,2.37-7.11,2,.83,1.94,2.3,1.94,5a15.42,15.42,0,0,0,.24,2l.41,0c.1-1.23,0-2.86.13-4.23,1.09,0,2.28-.39,3.27-.39-.77,3.35-2.66,7.33-1.05,10.89ZM45.45,91.82c-5.83-7.9-5.83-9.45-2.47-13.15.43,1.21.24,5.64.43,6.49.52,2.43,2.66,5.15,5.09,5.48a41,41,0,0,1,4.26.51c.51.12,1.56-.66,4.79-.67,2.19-.46,1.14.35,3.32-.15a21.76,21.76,0,0,1-13.78,4.62,1.88,1.88,0,0,1-1.21-.67c-.76-.86-1.42-1.81-2.29-2.93l1.87.48Zm9.46-16.73c.58-1,2.3-.51,2.84,1.25,1.16,3.74,3.19,11.27,2.53,13.2-2.47-4.43-3.77-9.76-5.38-14.45ZM55,78.43l2.61,8-5.72.71C50.48,83.33,54,81.39,55,78.43Zm-10.9,4.84a23.49,23.49,0,0,1,1-7.6c1.37-4.38,3.2-8.61,5-13.21l1.29,3.63c-2,1.29-2.62,2.55-2.57,4.49a20.22,20.22,0,0,1-1.59,7.86,22.35,22.35,0,0,0-1,4c-.51,2.76,2.18,6.06,5,5.6a48,48,0,0,1,5.24-.41,11.56,11.56,0,0,1,1.76.17c0,.21,0,.42,0,.63A13.71,13.71,0,0,1,50,89.55c-4.07-.5-5.76-2.13-5.89-6.28Zm10.14-17.8c.41-.16,1.28.36,1.77.69-2.1-.35-3.42,1.45-5.05,2l.16.44,3.73-1.46c1.11.3.86-.12,1.5,1.16-.49.18-1.83.26-2.89.65-.83.31-1.67,1-2.14,1.14l0,.46A4,4,0,0,0,53.31,70c1.55-.59,2.44-.63,3.23.36a12.55,12.55,0,0,1,.61,2.16c-1.23-1.81-2.75-1.56-4.33-.81a3.62,3.62,0,0,0-.78.73c.31.26,1.08-.11,1.45-.16a7.35,7.35,0,0,1,1.64,0c1.08-.17,1.7,1.45,2.11,1.9-.51.14-1.51-.73-2.67-.3a3.23,3.23,0,0,0-1.16,2.56c1,1.69,0,2.81-.81,4a13.16,13.16,0,0,0-2.88,6.24c-2.26-.65-3.22-3.27-1.61-7.24.63-2.24,1.39-3.17,1.45-5.06,0-.55-.1-1.1-.12-1.64-.09-4.3.79-5.68,4.81-7.29Zm.58-5.76a6.09,6.09,0,0,1,.65-2.61c.82,3.09.89,2.2,2.87,5.74.31,0,.65-.78.62-1.54l-.41-6.85a170,170,0,0,1,3.35,30.2l-.43.19a6.39,6.39,0,0,1-1-1.59q-1-4-1.87-8c-.37-1.76-.59-3.54-.91-5.31-.24-1.32-.5-2.64-.83-3.94a1.89,1.89,0,0,0-.68-1.1c-2.19-1.32-1.69-3.31-1.38-5.25ZM61.2,86.3c1.38-.44,2.59-1.81,3.5-2.1,0,.08.87-1.65,1.62-2.07s1,0,1,0c-.45.3-2.39,5.19-3.92,7.43-.44.65-1,2.1-1.42,2.17-.54.1-.49-.77-.69-.67s.45-4.34-.12-4.8Zm1.07-13.8c.16,1.71,1.65,9.54,1.81,11.24-.22,0-1.16.8-1.38.82-.12-1.72-.22-2.5-.34-4.22.18,0-.27-7.84-.09-7.84Zm13.43-20c3,3.1,2.36,16.36,1.56,20.49a13.37,13.37,0,0,0-2.84-1.25c-.93-.18-1.64.14-2.85,1.69-1.12-4.65-.49-11.83.26-16,.16,0,.51,2,.67,2,.22,3.59.61,7.16.83,10.75l.47.18a12,12,0,0,0,.86-2.48c.47-4,.63-11.21,1-15.32ZM87.45,94.69A4.46,4.46,0,0,1,90,99.12c-.11,3.72-.49,7.44-.77,11.16a15.53,15.53,0,0,1-.4,2.63c-1.42-6,1-12.25-1.35-18.21Zm-1.85-.28c1.82,1.35,2.07,3.5,2.08,5.64,0,3.8-.19,7.6-.2,11.4,0,2,.21,3.94.1,6a23,23,0,0,1-1.1-4.39c-.2-3.79-.18-7.58-.2-11.38,0-1.26.24-2.54.13-3.79a23.8,23.8,0,0,0-.81-3.48ZM84.33,103c1.69,6.67-.18,16.26-.43,23-.38-2.81-.64-5.64-1.16-8.42a37.07,37.07,0,0,0-1.94-7.29c-.78-1.88,1.84-6,3.54-7.29Zm-16,.57,1.37,1c3.78-.84,5.21-3.6,6.07-7l-1.37-.22-.07-1.49-2.69,1.44c1.31-2.89,4.24-3,11.88-.53l-.7-1.65c1.69-.37,2.41.13,2.52,1.66.14,2,0,3.82-1.68,5.37a34.56,34.56,0,0,0-3,3.93,1.1,1.1,0,0,1-1.57.45c-.65-.28-1.67.27-2.52.43s-1.84.31-2.76.46l-.12-.6,3.81-.83-.06-.38c-1,.17-2.05.29-3.06.51a19.24,19.24,0,0,1-3,.62c1.06-1.48,2.6-1.72,4.17-1.92,1.23-.16,1.48-.68.86-2.3-.15,1.79-1.25,1.79-2.41,1.91a15.73,15.73,0,0,0-2.33.79c-1,.26-1.95.42-3,.65l-.29-2.32Zm-8.76-5.32.22-.59,10.82,5.23c-1.22.69-7.08-1.8-11-4.64ZM55.08,114c1.2-2.46,2.22-4.83,3.54-7,.31-.51,1.66-.4,2.53-.57.15.78.62,1.66.39,2.31a27.86,27.86,0,0,1-2,3.85l-.64-.38,1.68-2.71c-1.53,0-2.53,0-3,1.65-.3,1.13.26,3.16-2.55,2.89Zm-2.3.51.24,1.42-3.55,3.72,1,.94,1.63-3.21.53.54c.49,3.07-2.06,6.52-5.06,6.56a2.57,2.57,0,0,1-1.87-1.59,33.27,33.27,0,0,1-.62-5.69A2.21,2.21,0,0,0,44,115a5,5,0,0,1-1.77-2.1c-.76-1.62-1.32-3.34-2-5l.34-.4a13.36,13.36,0,0,1,2.1,1.69A27.9,27.9,0,0,1,44.49,112c1.62,2.48,3.24,2.89,5.43,1a87,87,0,0,0,7.34-7.34,6.23,6.23,0,0,1,5.62-2,6.17,6.17,0,0,1,2,1l-.92,1.6a11.61,11.61,0,0,0-2.23-.94,3.91,3.91,0,0,0-4.76,2.44,7.15,7.15,0,0,1-3.54,3.74,9.52,9.52,0,0,0-3.74,4,77.26,77.26,0,0,0-3.25,8c2.37,1.09,4.65-.58,4.92-3.85L48,123.43c.18-5,3.21-10.17,6.91-11.29l-1.6,2.58-.52-.22ZM48,112.95c-.3.22-1.38-.22-1.8-.65a36.52,36.52,0,0,1-2.6-3.35c2.07.33,3.28,2.37,5.27,1.28,1.47-.8,3-1.57,4.45-2.36l.37.52c-1.88,1.54-3.72,3.14-5.69,4.56Zm-4.1,2.87c.54.3.39,1.26.46,1.91s0,1.39,0,2.56c-3.76-4.09-5.56-10.75-7.22-15.34.14-.06,1.41.92,1.55.86.64,1.32.55,3.57,1.35,4.78,1.18,1.81,2.1,4.26,3.85,5.23Zm-8-11.73c.89,2.23,3.91,11.11,4.9,13.3.75,1.67,1.36,3.52,3.38,4.23.22.08.35.51.44.81.86,2.62,2.52,3.45,5.09,2.35a25.75,25.75,0,0,0,3.11-1.87,3.39,3.39,0,0,1-3,2.8c-5.59.74-7,.07-9-5.21-1.2-3.16-3.43-10.76-4.46-14,.14,0-.57-2.37-.43-2.41ZM46.05,48.46c.51,2,1.33,3,.57,4.88-1.51,3.78-3.46,8.27-4.71,12.14-2.61,8.11-5,16.31-7.43,24.47a2.65,2.65,0,0,0,0,.62l1.19-.31c1.46,5.64,4.78,8.13,8.94,6.37l-2.5-3.16-.48.31,1.48,2.58a6.18,6.18,0,0,1-6.37-7.08c.17-1.29,1-1.86,1.55-3.33-.63.2-2,2.7-2.87,3,1.9-6.78,9.9-22.83,13.33-30.66.2.07.49,1.74.69,1.81-.11.59-.46,2-.6,2.57-2.24,5.23-4.23,12-7.49,16.82a6.22,6.22,0,0,0-.2,7.15A6.49,6.49,0,0,1,42,89.13l-1-.82c-2.36,2-2.51,4.77-.45,6.12l-.42-4.63.74-.28a30,30,0,0,1,2,2.63c2.24,3.69,3.83,4.53,8,3.43a76.71,76.71,0,0,0,7.72-2.84c.8-.3,1.58-.64,2.38-1l.24.51a26.45,26.45,0,0,1-4,2c-4,1.21-8.05,2.23-12.08,3.33-.73.2-1.46.44-2.31.7-.59.79-.59.79,1.65.44,3.56-1.1,7.5-2,11-3.19.71-.25,5.81-2.73,6.67-2.68l-1.5,3.2s-1.85.69-3.79,1.29c-2.07.78-5.47,3.59-6.93,5.06-1.07,1.08-4.4,1.38-5.4.23a38,38,0,0,0-10.42-8.54c-.71-.38-1.44-.71-2.25-1.1,1,6.67,7,10.65,16.65,11.17-.49,1.3-1.12,2.2-2.75,1.11l-.29.39,1.5,2.74c3.06-4.9,6.21-9.14,11.3-11.16l1.58,2.88c-3.2,1.48-7.4,1.8-10.19,5.57.74-.22,1.2-.21,1.39-.43,1.84-2.16,4.48-2.68,7-3.48a6.31,6.31,0,0,0,1.4-.49c1.85-1.14,3.43-.49,5.19.83-1.28.2-2.37.33-3.44.54a24.47,24.47,0,0,0-10.4,5.2,4.72,4.72,0,0,1-6,.49c-5.55-3.1-10.6-6.75-14.43-11.88A2.89,2.89,0,0,1,30,94.29c2.1-7.3,4.22-14.59,8-21.29A10.11,10.11,0,0,0,39,66.11c-.15-.8-1-1.47-1.47-2.2-.61.65-1.57,1.21-1.74,2a21.26,21.26,0,0,0-.38,4.75c0,4.44-1.82,8.4-3.16,13-1-12.67,3.25-27.31,11.67-33.73a23.88,23.88,0,0,1,2.1-1.4ZM37.23,64.78c1.38,3,.48,5.51-.65,8-.15-2.55-.94-5.14.65-8ZM34.55,96.11c2.22.09,6.75,3.94,8.69,6.57-3.18.2-7.95-3.41-8.69-6.57ZM48,58c-.81,1.86-1.88,3.62-2.68,5.48-2.05,4.81-4,9.66-6,14.49-.33.81-.68,1.61-1,2.41l-.45-.2L47.3,53.93A3.49,3.49,0,0,1,48,58Zm-.93-11.68a1.9,1.9,0,0,1-2.1,1c-1.21-.28-.89-1.7-.68-2.55.19-.61.35-.65.57-.72a6.52,6.52,0,0,0,2.21,2.27Zm.38-.85c-1.3-1-3.51-1.68-1.41-3.89,2.81.27,2.21,1.84,1.41,3.89Zm1.8,3.3c1,3.36,2,6.73,3,10.08.37,1.2.91,2.36,1.27,3.56a2.33,2.33,0,0,1-.69,2.91,67.48,67.48,0,0,1-5.44-17.45c1.12-.59,1.57,0,1.84.9Zm1.65-3.38a2.86,2.86,0,0,1-1.29.78,1.72,1.72,0,0,1-1.21-.43c.16-.69.26-1.33.4-2,.16-.06-.08-1.15.09-1.21.47.63,2.67,1.46,2,2.81Zm4.64-3c-1,2.69-2.75,8.68-3.71,11.37-.13,0-.3-2.37-.43-2.37L50,47.33c1.86-1.1,2.58-3.06,3.79-4.49.3.16,1.46-.61,1.76-.45Zm1.94,2.88c-2.26,4.05-3,8.44-3.32,13a6.22,6.22,0,0,1-.45,1.19c-.46-2-1.34-3.33-.7-5.19.95-2.74,1.49-5.61,2.29-8.41.42-1.46,1-2.88,1.58-4.51a3.2,3.2,0,0,1,.6,4ZM57,27.82l.17-.95,2.07.47a10.53,10.53,0,0,1-1.34,0,.94.94,0,0,0-.9.47Zm-1-12.8,1.74.5a4.33,4.33,0,0,0-.19.58,3.09,3.09,0,0,0,.49,2.5c.3.26-.69.38-.73.39a11.51,11.51,0,0,1-1.31-4Zm21.89,1.21-1.56.33a6.38,6.38,0,0,0-.76-1.1,10.9,10.9,0,0,0-1-.87c-.07.45-.2,1.23-.55,1.44a15.54,15.54,0,0,0-.95-1.73c-.22.35-1,1.27-1.29,1.64-1.32-2.07-1.25-2.24-3.1-.56-.32-.7-.59-1.84-.92-2.56-.5.47-.91,1.57-1.45,2.08-.3-.41-.74-1.55-1.35-2.39l-2.08,3.15c-.33-.75-1-1.67-1.31-2.39-.07-.15-.86,1.12-1.25,2.11-.14.35-1.63-2-1.7-2.11a9.56,9.56,0,0,1-.52,1.49c-.28-.1-.92-.33-1.36-.48.6-.33,1.32-.73,1.89-1a22.9,22.9,0,0,1,15.49.81l.38.16.13.06h0l.81.44s1.31.65,2,1.07a2.08,2.08,0,0,1,.53.41Zm-2.67,3.69s1.37-1.57,1.25-2.59L78,16.81a33.46,33.46,0,0,1-1.83,3.46l-.89-.36Zm-2,10.73c1.63.25,1.75-2.11,2.17-3,1,1.2-1.38,3-1.45,4.69-1,.15-.69-.89-.72-1.64Zm3,14.54c-2.75.45-5.69.61-8.61,1.08,2.41-1.49,3.83-3.44,5.34-5.08.44,1.17.55,1.76,2.67,1.52.16,0,.3,1.88.6,2.48Zm2.25,1.88c-4,.9-12.15,1.65-13.1.24,3.62-.44,8-.83,11.65-1.28l-.17-2.43.42-.07c.23,1,.91,2.35,1.19,3.54Zm19.39,24a38.88,38.88,0,0,1-3.88-6.51c.25-.15,1.46.13,1.51.56l2.24,3.92c-.19.11.32,1.91.13,2Zm2,7.81c0,.2-.1.4-.21.79-2.83-1.57-4.84-4.76-8.74-4.25.85-.47,1.68-1,2.55-1.41s1.87-.83,3-1.31c-1.33-2.11-3.36-.86-4.89-1.45-.72-2-1-2.12-3.14-1.39a7.57,7.57,0,0,0-4.34,4.29c-.3.63-.59,1.27-.88,1.91h-.51a14,14,0,0,1,0-1.93c.46-3.32,1.1-6.62,1.42-10A12.55,12.55,0,0,0,83,57l-.56-.09a26.25,26.25,0,0,0-1,4.68c-.1,3.08.15,6.16.14,9.25a32.57,32.57,0,0,1-.43,3.82c-2.17-.18-2.19-1.6-2.34-3-.66-6.35.1-9.32-.6-15.67-.28-2.53-3.63-7-3.73-7.5,1.09-.76,5,.74,5-2l1.67,4c1-1.45.17-2.46-.45-3.44s-1.42-1.94-2.23-3a3.68,3.68,0,0,1,1.06,0c6.75,2.5,11.63,6.9,14,13.84.88,2.52,1.94,5,2.68,7.59-.23-.39-.38-.92-.72-1.13a7,7,0,0,0-1.69-.54c-.08.52-.41,1.18-.2,1.53,1.2,2,1.69,4.58,3.82,5.94,2.38,1.53,3,4.65,2.48,7.61ZM105,96.82c-.49-.82-.91-1.47-1.27-2.16s-.64-1.4-1-2.14c1.62-1.07.3-2.31.19-3.5l0,0,0-.08c-1.25-.71-2.47-1.48-3.76-2.09s-2.64-1-4-1.5l.09-.6,3.93.38c-1-2.88-3.57-2.74-6-3.3a10.58,10.58,0,0,1,1-.63,10.49,10.49,0,0,1,1-.39c-.7-2.24-.84-2.24-6.3-.23-.09-3.32-3.56-2.65-5.11-4.56,1.92-1.52,2.51-4.67,5.86-5.24L89,73.24,93.69,72l.21.42-6.43,4.34.3.75a7.24,7.24,0,0,0,2.16-.42,3.91,3.91,0,0,1,4.83.5c1.48,1.23,3.23,2.15,4.58,3.49a20.7,20.7,0,0,1,2.48,3.84l-.53.3a21.63,21.63,0,0,0-1.34-2.78c-.26-.4-.93-.53-1.41-.78a3.65,3.65,0,0,0,.23,1.42c1,1.51,2.13,2.94,3.19,4.41.33.45.6.94.89,1.41l.08,0s0,0,0,.07c2.92,2.5,3.51,4.51,2.06,7.8ZM62.32,27.45c.62.35,1.31.15,1.68.37-.14.06-.61.53-.75.59a7,7,0,0,0,.66,2.36,2.43,2.43,0,0,0,3,.86L63.95,30c1.61-.8,3.33.62,4.29-1.41-.34-.82-2.43-.82-2.81-1.61a7.53,7.53,0,0,1,3.41,0c-1-1.58-4-2.16-5.64-1.09-.44.28-.6,1-.88,1.54Zm1.69,1,.11-.06a6.69,6.69,0,0,1,.62-.33,7.17,7.17,0,0,1,1.86.34s0,.1,0,.18c0,.24,0,.6-.1.6H66c-.66,0-1.56,0-1.81,0,0,0,0-.05,0-.11s-.08-.28-.11-.42a.8.8,0,0,1,0-.17Zm-.72-1.58c0-.9,2.09-1.06,2-.88-.13.35-1.37.47-1.79.69l-.23.19Zm.18,9.66c-.73-.54-2.49-.08-3.62-.23l.1.46c1.88-.15.32,1.47,1.83,1.41-.55-1.14.88-.75,1.69-1.64Zm-.92,3.15c-.56-.22-.78,0-1.69-.23q-.08,1.25,1.21,1.17c.13-.35.36-.59.48-.94Z" transform="translate(-4.1 -7)"/><path d="M121,114.37a13.34,13.34,0,0,0-2.34-2.38,11.58,11.58,0,0,0-2.88-.38l.08-.16a7.63,7.63,0,0,0,1.54,0c.66,0,2-.53,2-1.15s-.6-1.19-1.07-1.41a6.3,6.3,0,0,0-2.85-.13s2.47.62,2.4,1.35c0,.46-1.64.89-1.64.89l-.41-.59-.06.52-.62-.65,1-.21-.41-.62-1.16.35,1.06,1.46-.1.21s-.47-.9-.76-1a5.48,5.48,0,0,0-1.93,0h0s.75,1.31,1.19,1.51a3.69,3.69,0,0,0,1.3-.06l-.1.21-1.8.09.45,1.12.74-.07-.44-.88.89.07-.37.37.72,0s.65,1.51.32,1.83c-.53.51-2.54-1-2.54-1a6.3,6.3,0,0,0,1.89,2.13,1.62,1.62,0,0,0,1.77-.06c.44-.43,0-1.84-.37-2.28a7.63,7.63,0,0,0-1-1.18l.08-.16a11.6,11.6,0,0,0,2.1,2,13.35,13.35,0,0,0,3.33.33" transform="translate(-4.1 -7)"/><path d="M15,117.81a13.34,13.34,0,0,1,2.34-2.38,11.6,11.6,0,0,1,2.88-.38l-.08-.16a7.65,7.65,0,0,1-1.54,0c-.66,0-2-.53-2-1.15s.6-1.19,1.07-1.41a6.3,6.3,0,0,1,2.85-.13s-2.47.62-2.4,1.35c0,.46,1.64.89,1.64.89l.41-.59.06.52.62-.65-1-.21.41-.62,1.16.35-1.06,1.46.1.21s.47-.9.77-1a5.48,5.48,0,0,1,1.93,0h0s-.75,1.31-1.19,1.51a3.69,3.69,0,0,1-1.3-.06l.1.21,1.8.09-.45,1.12-.74-.07.44-.88-.89.07.37.37-.72,0s-.65,1.51-.32,1.83c.53.51,2.54-1,2.54-1a6.31,6.31,0,0,1-1.89,2.13,1.62,1.62,0,0,1-1.77-.06c-.44-.43,0-1.84.37-2.28a7.63,7.63,0,0,1,1-1.18l-.08-.16a11.6,11.6,0,0,1-2.1,2,13.35,13.35,0,0,1-3.32.33" transform="translate(-4.1 -7)"/><rect x="345.91" width="3.31" height="148.88"/><path d="M373.14,130.11h5.14c5,0,7.2-2.83,7.2-7.85,0-4.83-2.58-7.14-7.2-7.14h-5.14v15Zm2-13.31h3.36c3.67,0,5,2.16,5,5.73,0,5.52-3.68,5.9-5,5.9h-3.32V116.8Zm12.64,13.31h2v-15h-2v15Zm7.77,0h2.06l1.68-4.51h6.34l1.64,4.51h2.21l-5.86-15H401.4l-5.86,15Zm6.91-13.19h0l2.5,7h-5.08l2.54-7ZM412.7,122V116.8h5a2.37,2.37,0,0,1,2.67,2.56c0,2.18-1.6,2.67-3.46,2.67Zm-2,8.08h2v-6.4h4.87c1.93,0,2.29,1.24,2.5,2.71s0,3.09.55,3.7h2.23c-.84-1-.76-2.67-.88-4.14s-.5-2.75-2.25-3.09v0a3.6,3.6,0,0,0,2.6-3.8c0-2.39-1.74-3.93-4.56-3.93H410.7v15Zm26.69-10.48c-.46-3.19-3-4.87-6.17-4.87-4.62,0-7.1,3.55-7.1,7.9s2.27,7.81,6.93,7.81c3.78,0,6.11-2.27,6.49-6h-2c-.19,2.48-1.7,4.33-4.33,4.33-3.59,0-5.1-2.86-5.1-6.28,0-3.13,1.51-6.07,5.08-6.07a4,4,0,0,1,4.2,3.19Zm2.39,10.48h2v-6.87h7.9v6.87h2v-15h-2v6.45h-7.9v-6.45h-2v15Zm15,0h2v-15h-2v15Zm8.52,0h2V116.8h5v-1.68h-12v1.68h5v13.31Zm8.42,0h10.42v-1.68h-8.42v-5.19h7.79v-1.68h-7.79V116.8h8.36v-1.68H471.74v15Zm16,0h2V116.8h5v-1.68h-12v1.68h5v13.31Zm11.82,0h2V116.8h5v-1.68h-12v1.68h5v13.31Zm20.39-15h-2v9.58c0,2.65-1.39,4.1-3.91,4.1s-4.16-1.45-4.16-4.1v-9.58h-2v9.58c0,4,2.29,5.77,6.15,5.77s5.9-2,5.9-5.77v-9.58Zm5,6.91V116.8h5a2.37,2.37,0,0,1,2.67,2.56c0,2.18-1.6,2.67-3.46,2.67Zm-2,8.08h2v-6.4h4.87c1.93,0,2.29,1.24,2.5,2.71s0,3.09.55,3.7H535c-.84-1-.76-2.67-.88-4.14s-.5-2.75-2.25-3.09v0a3.6,3.6,0,0,0,2.6-3.8c0-2.39-1.74-3.93-4.56-3.93H522.9v15Zm12.37,0h2.06L539,125.6h6.34l1.64,4.51h2.21l-5.86-15h-2.2l-5.86,15Zm6.91-13.19h0l2.5,7h-5.08l2.54-7Z" transform="translate(-4.1 -7)"/><path d="M373.14,107.44h5.14c5,0,7.2-2.83,7.2-7.85,0-4.83-2.58-7.14-7.2-7.14h-5.14v15Zm2-13.31h3.36c3.67,0,5,2.16,5,5.73,0,5.52-3.68,5.9-5,5.9h-3.32V94.13Zm12.64,13.31h2v-15h-2v15Zm5.12,0h2v-6.13h4.58c3,0,4.6-1.66,4.6-4.43s-1.62-4.43-4.6-4.43h-6.57v15Zm2-13.31h3.91c2.25,0,3.28,1,3.28,2.75s-1,2.77-3.28,2.75h-3.91v-5.5Zm8,13.31H405l1.68-4.52H413l1.64,4.52h2.21l-5.86-15h-2.2l-5.86,15Zm6.91-13.19h0l2.5,7H407.3l2.54-7Zm10.25,5.1V94.13h5a2.37,2.37,0,0,1,2.67,2.56c0,2.18-1.6,2.67-3.46,2.67Zm-2,8.08h2V101H425c1.93,0,2.29,1.24,2.5,2.71s0,3.09.55,3.7h2.23c-.84-1-.76-2.67-.88-4.14s-.5-2.75-2.25-3.09v0a3.6,3.6,0,0,0,2.6-3.8c0-2.39-1.74-3.93-4.56-3.93h-7.06v15Zm17.18,0h2V94.13h5V92.45h-12v1.68h5v13.31Zm8.5,0h2v-15h-2v15Zm5.16,0h1.89V95h0l4.68,12.47h1.7L461.93,95h0v12.47h1.89v-15h-2.73L456.39,105l-4.73-12.6h-2.73v15Zm18,0h10.42v-1.68h-8.42v-5.19h7.79V98.9h-7.79V94.13h8.36V92.45H466.95v15Zm12.58,0h1.89v-12h0l7.83,12h2.18v-15h-1.89v12.16h0l-7.9-12.16h-2.12v15Zm18.35,0h2V94.13h5V92.45h-12v1.68h5v13.31Zm7.58-7.5c0,4.07,2.42,7.85,7.18,7.85s7.18-3.78,7.18-7.85-2.41-7.85-7.18-7.85-7.18,3.78-7.18,7.85Zm2,0c0-3,1.53-6.17,5.19-6.17s5.19,3.15,5.19,6.17-1.53,6.17-5.19,6.17-5.19-3.15-5.19-6.17Z" transform="translate(-4.1 -7)"/><path d="M374.79,79.1h18.35c14.37,0,21.06-8,21.06-20.65,0-10.38-4.85-20.54-18.58-20.54H374.79V79.1Zm12.69-30.63h4c9.17,0,10,7.21,10,9.81,0,3.87-1.15,10.27-9.06,10.27h-5V48.47ZM418.9,79.1h12.69V37.91H418.9V79.1Zm18.44,0h18.35c14.36,0,21.06-8,21.06-20.65,0-10.38-4.85-20.54-18.58-20.54H437.34V79.1ZM450,48.47h4c9.17,0,10,7.21,10,9.81,0,3.87-1.15,10.27-9.06,10.27h-5V48.47Zm45,15.92,4-12.69h.12l3.69,12.69ZM477.7,79.1h12.75l1.85-5.88h13.09l1.73,5.88h13.15l-15-41.19h-12.4L477.7,79.1Z" transform="translate(-4.1 -7)"/></svg>